<svg width="16" height="16" viewBox="0 0 16 16" fill="none" xmlns="http://www.w3.org/2000/svg">
<path d="M8 14.125C6.37555 14.125 4.81763 13.4797 3.66897 12.331C2.52031 11.1824 1.875 9.62445 1.875 8C1.875 6.37555 2.52031 4.81763 3.66897 3.66897C4.81763 2.52031 6.37555 1.875 8 1.875C9.62445 1.875 11.1824 2.52031 12.331 3.66897C13.4797 4.81763 14.125 6.37555 14.125 8C14.125 9.62445 13.4797 11.1824 12.331 12.331C11.1824 13.4797 9.62445 14.125 8 14.125ZM8 15C9.85652 15 11.637 14.2625 12.9497 12.9497C14.2625 11.637 15 9.85652 15 8C15 6.14348 14.2625 4.36301 12.9497 3.05025C11.637 1.7375 9.85652 1 8 1C6.14348 1 4.36301 1.7375 3.05025 3.05025C1.7375 4.36301 1 6.14348 1 8C1 9.85652 1.7375 11.637 3.05025 12.9497C4.36301 14.2625 6.14348 15 8 15Z" fill="white"/>
<path d="M10.0563 6.13383C10.051 6.13808 10.0461 6.1426 10.0415 6.14737L7.47693 8.8719L5.93138 7.5826C5.82639 7.50103 5.68753 7.45662 5.54406 7.45873C5.40058 7.46084 5.26368 7.50931 5.16221 7.59391C5.06074 7.67852 5.00262 7.79266 5.00009 7.9123C4.99755 8.03193 5.05081 8.14771 5.14864 8.23525L7.10254 9.86504C7.15518 9.90885 7.21786 9.94337 7.28684 9.96655C7.35583 9.98972 7.4297 10.0011 7.50406 9.99992C7.57842 9.99877 7.65174 9.98515 7.71965 9.95986C7.78755 9.93457 7.84866 9.89814 7.89931 9.85273L10.8471 6.78032C10.9475 6.69248 11.0024 6.57523 10.9999 6.45391C10.9974 6.3326 10.9378 6.21698 10.8339 6.13204C10.73 6.0471 10.5902 5.99967 10.4446 6C10.2991 6.00034 10.1596 6.04841 10.0563 6.13383Z" fill="white"/>
</svg>
