<svg width="16" height="16" viewBox="0 0 16 16" fill="none" xmlns="http://www.w3.org/2000/svg">
<path d="M10.3333 5.66689C10.224 5.55753 10.0756 5.49609 9.92093 5.49609C9.76625 5.49609 9.6179 5.55753 9.50851 5.66689L8.00001 7.1754L6.49151 5.66689C6.38149 5.56063 6.23414 5.50183 6.08119 5.50316C5.92825 5.50449 5.78194 5.56584 5.67378 5.67399C5.56563 5.78215 5.50428 5.92846 5.50295 6.08141C5.50162 6.23435 5.56042 6.38171 5.66668 6.49173L7.17518 8.00023L5.66668 9.50874C5.56042 9.61876 5.50162 9.76611 5.50295 9.91906C5.50428 10.072 5.56563 10.2183 5.67378 10.3265C5.78194 10.4346 5.92825 10.496 6.08119 10.4973C6.23414 10.4986 6.38149 10.4398 6.49151 10.3336L8.00001 8.82507L9.50851 10.3336C9.61853 10.4398 9.76588 10.4986 9.91883 10.4973C10.0718 10.496 10.2181 10.4346 10.3262 10.3265C10.4344 10.2183 10.4957 10.072 10.4971 9.91906C10.4984 9.76611 10.4396 9.61876 10.3333 9.50874L8.82484 8.00023L10.3333 6.49173C10.4427 6.38233 10.5041 6.23399 10.5041 6.07931C10.5041 5.92463 10.4427 5.77628 10.3333 5.66689Z" fill="white"/>
<path d="M8 1C6.61553 1 5.26216 1.41054 4.11101 2.17971C2.95987 2.94888 2.06266 4.04213 1.53285 5.32121C1.00303 6.60029 0.86441 8.00776 1.13451 9.36562C1.4046 10.7235 2.07129 11.9708 3.05026 12.9497C4.02922 13.9287 5.2765 14.5954 6.63437 14.8655C7.99224 15.1356 9.3997 14.997 10.6788 14.4671C11.9579 13.9373 13.0511 13.0401 13.8203 11.889C14.5895 10.7378 15 9.38446 15 7.99999C14.998 6.1441 14.2599 4.36479 12.9475 3.05247C11.6352 1.74015 9.8559 1.00201 8 1V1ZM8 13.8333C6.84628 13.8333 5.71846 13.4912 4.75918 12.8502C3.79989 12.2093 3.05222 11.2982 2.61071 10.2323C2.16919 9.16641 2.05368 7.99352 2.27876 6.86197C2.50384 5.73041 3.05941 4.69101 3.87521 3.87521C4.69102 3.0594 5.73042 2.50383 6.86198 2.27875C7.99353 2.05367 9.16642 2.16919 10.2323 2.6107C11.2982 3.05221 12.2093 3.79988 12.8502 4.75917C13.4912 5.71846 13.8333 6.84627 13.8333 7.99999C13.8316 9.54657 13.2165 11.0293 12.1229 12.1229C11.0293 13.2165 9.54658 13.8316 8 13.8333Z" fill="white"/>
</svg>
