<svg width="22" height="20" viewBox="0 0 22 20" fill="none" xmlns="http://www.w3.org/2000/svg">
<path d="M16.8715 16.7622C16.9477 16.8469 17.0063 16.9456 17.044 17.0528C17.0817 17.16 17.0978 17.2735 17.0912 17.3868C17.0847 17.5001 17.0557 17.611 17.0059 17.7132C16.9561 17.8154 16.8865 17.9069 16.801 17.9823L15.4208 19.2033C15.1843 19.4356 14.9039 19.6192 14.5956 19.7436C14.2874 19.8679 13.9574 19.9305 13.6246 19.9278C13.2795 19.9285 12.9377 19.8616 12.6187 19.7309C12.2997 19.6002 12.0099 19.4083 11.7658 19.1662L10.4221 17.9798C10.3368 17.9044 10.2672 17.813 10.2174 17.7109C10.1676 17.6088 10.1386 17.498 10.132 17.3848C10.1186 17.1561 10.1973 16.9316 10.3508 16.7605C10.5043 16.5894 10.7199 16.4859 10.9504 16.4726C11.0645 16.466 11.1788 16.4818 11.2867 16.519C11.3947 16.5563 11.4942 16.6143 11.5796 16.6897L12.7413 17.7207V11.2928C12.7413 11.0638 12.833 10.8442 12.9962 10.6823C13.1594 10.5203 13.3808 10.4293 13.6116 10.4293C13.8424 10.4293 14.0637 10.5203 14.2269 10.6823C14.3901 10.8442 14.4818 11.0638 14.4818 11.2928V17.7216L15.6436 16.6923C15.8158 16.5401 16.0419 16.462 16.2721 16.4751C16.5024 16.4883 16.718 16.5915 16.8715 16.7622ZM16.5321 5.56008C16.3827 5.51404 16.2471 5.43198 16.1375 5.32122C16.0278 5.21047 15.9475 5.07448 15.9038 4.92541C15.443 3.45755 14.5019 2.18415 13.2295 1.30685C11.9571 0.429561 10.4261 -0.00148674 8.87893 0.0819662C7.33178 0.165419 5.8569 0.758603 4.68782 1.76759C3.51875 2.77658 2.7223 4.1437 2.4246 5.65248C2.11913 7.17829 2.36565 8.76211 3.12079 10.1254C2.2405 10.5764 1.52469 11.2896 1.07391 12.165C0.623131 13.0403 0.460035 14.0338 0.607531 15.0059C0.834361 16.1352 1.44367 17.1535 2.33428 17.8917C3.22489 18.63 4.34321 19.0438 5.50352 19.0643H7.51988C7.75068 19.0643 7.97203 18.9733 8.13523 18.8114C8.29843 18.6495 8.39012 18.4298 8.39012 18.2008C8.39012 17.9718 8.29843 17.7522 8.13523 17.5902C7.97203 17.4283 7.75068 17.3373 7.51988 17.3373H5.50352C4.7603 17.3232 4.04343 17.0616 3.46801 16.5946C2.8926 16.1277 2.49203 15.4824 2.33061 14.7624C2.23611 14.1437 2.33923 13.5113 2.62547 12.9537C2.91172 12.3962 3.36673 11.9416 3.92664 11.6538C4.32573 11.4349 4.6219 11.0689 4.75106 10.635C4.88021 10.2011 4.83196 9.73417 4.61674 9.33529C4.27884 8.69583 4.07936 7.99335 4.03112 7.2729C3.98287 6.55246 4.08693 5.82997 4.3366 5.15176C4.58627 4.47356 4.97605 3.85463 5.48093 3.33467C5.98582 2.81471 6.59466 2.4052 7.2684 2.13242C7.94214 1.85963 8.66591 1.72959 9.39327 1.75063C10.1206 1.77167 10.8355 1.94334 11.4921 2.25461C12.1487 2.56589 12.7325 3.0099 13.2059 3.55817C13.6794 4.10643 14.0322 4.74685 14.2416 5.43833C14.3704 5.85515 14.5999 6.23444 14.91 6.54324C15.2202 6.85205 15.6017 7.08101 16.0213 7.21023C17.1581 7.55346 18.142 8.27292 18.809 9.2487C19.476 10.2245 19.7858 11.3976 19.6868 12.5725C19.6212 13.4861 19.2848 14.3601 18.7199 15.0845C18.5792 15.2661 18.517 15.4957 18.547 15.7228C18.5769 15.9499 18.6966 16.1559 18.8796 16.2955C19.0626 16.4351 19.294 16.4968 19.5229 16.4671C19.7518 16.4374 19.9594 16.3187 20.1001 16.1371C20.8668 15.1452 21.3264 13.9536 21.4229 12.7072C21.5543 11.1406 21.1405 9.57658 20.2506 8.27598C19.3606 6.97538 18.0481 6.01681 16.5321 5.56008Z" fill="#3B71FE"/>
</svg>
