<svg width="16" height="16" viewBox="0 0 16 16" fill="none" xmlns="http://www.w3.org/2000/svg">
<path d="M11.667 0.611328C10.9163 0.623005 10.1819 0.832564 9.53813 1.21884C8.89434 1.60512 8.36387 2.15444 8.00029 2.81133C7.63672 2.15444 7.10625 1.60512 6.46245 1.21884C5.81866 0.832564 5.08433 0.623005 4.33363 0.611328C3.13692 0.663322 2.00943 1.18683 1.19749 2.06748C0.385537 2.94814 -0.0448693 4.11435 0.000297713 5.31133C0.000297713 9.828 7.30429 15.0447 7.61496 15.266L8.00029 15.5387L8.38563 15.266C8.69629 15.046 16.0003 9.828 16.0003 5.31133C16.0455 4.11435 15.6151 2.94814 14.8031 2.06748C13.9912 1.18683 12.8637 0.663322 11.667 0.611328ZM8.00029 13.8973C5.83163 12.2773 1.33363 8.29733 1.33363 5.31133C1.28806 4.46781 1.57787 3.64048 2.13987 3.0098C2.70187 2.37911 3.49045 1.99623 4.33363 1.94466C5.17681 1.99623 5.96539 2.37911 6.52739 3.0098C7.08938 3.64048 7.3792 4.46781 7.33363 5.31133H8.66696C8.62139 4.46781 8.9112 3.64048 9.4732 3.0098C10.0352 2.37911 10.8238 1.99623 11.667 1.94466C12.5101 1.99623 13.2987 2.37911 13.8607 3.0098C14.4227 3.64048 14.7125 4.46781 14.667 5.31133C14.667 8.29866 10.169 12.2773 8.00029 13.8973Z" fill="#3B71FE"/>
</svg>
