<svg width="14" height="14" viewBox="0 0 14 14" fill="none" xmlns="http://www.w3.org/2000/svg">
<path d="M13.9996 13.4167C13.9996 13.5714 13.9382 13.7198 13.8288 13.8292C13.7194 13.9385 13.5711 14 13.4164 14H0.584219C0.429524 14 0.281165 13.9385 0.171779 13.8292C0.0623924 13.7198 0.000939977 13.5714 0.000939977 13.4167C0.000939977 13.262 0.0623924 13.1136 0.171779 13.0042C0.281165 12.8949 0.429524 12.8334 0.584219 12.8334H13.4164C13.5711 12.8334 13.7194 12.8949 13.8288 13.0042C13.9382 13.1136 13.9996 13.262 13.9996 13.4167ZM0.170674 4.98924C0.0449906 4.75611 -0.0132368 4.49256 0.00252675 4.22818C0.0182903 3.9638 0.107421 3.70904 0.259916 3.4925C0.509127 3.12684 0.842871 2.8267 1.23283 2.61755L5.608 0.340365C6.03803 0.116747 6.5156 0 7.00029 0C7.48499 0 7.96255 0.116747 8.39258 0.340365L12.7672 2.6193C13.1571 2.82845 13.4909 3.12859 13.7401 3.49425C13.8926 3.71079 13.9817 3.96555 13.9975 4.22993C14.0132 4.49431 13.955 4.75786 13.8293 4.99099C13.694 5.24695 13.4911 5.46089 13.2426 5.60951C12.9941 5.75812 12.7096 5.83572 12.4201 5.83385H12.2498V10.5002H12.8331C12.9878 10.5002 13.1361 10.5617 13.2455 10.6711C13.3549 10.7805 13.4164 10.9288 13.4164 11.0835C13.4164 11.2382 13.3549 11.3866 13.2455 11.496C13.1361 11.6054 12.9878 11.6668 12.8331 11.6668H1.1675C1.0128 11.6668 0.864444 11.6054 0.755058 11.496C0.645672 11.3866 0.584219 11.2382 0.584219 11.0835C0.584219 10.9288 0.645672 10.7805 0.755058 10.6711C0.864444 10.5617 1.0128 10.5002 1.1675 10.5002H1.75078V5.83385H1.58046C1.29066 5.83566 1.00593 5.75785 0.75733 5.60891C0.508726 5.45997 0.305796 5.24562 0.170674 4.98924ZM2.91734 10.5002H4.66717V5.83385H2.91734V10.5002ZM5.83373 5.83385V10.5002H8.16685V5.83385H5.83373ZM11.0832 5.83385H9.33341V10.5002H11.0832V5.83385ZM1.20425 4.44852C1.24084 4.516 1.2953 4.5721 1.36166 4.61068C1.42802 4.64926 1.50372 4.66884 1.58046 4.66726H12.4201C12.4969 4.66884 12.5726 4.64926 12.6389 4.61068C12.7053 4.5721 12.7597 4.516 12.7963 4.44852C12.823 4.40394 12.8359 4.35247 12.8334 4.30058C12.8309 4.2487 12.8131 4.1987 12.7823 4.15687C12.641 3.94684 12.4511 3.77396 12.2288 3.65291L7.85421 1.37397C7.59058 1.23714 7.2979 1.16571 7.00088 1.16571C6.70385 1.16571 6.41117 1.23714 6.14754 1.37397L1.77294 3.65291C1.5507 3.77435 1.36087 3.94739 1.21941 4.15746C1.18855 4.19911 1.17065 4.24893 1.16795 4.3007C1.16525 4.35247 1.17788 4.40389 1.20425 4.44852Z" fill="#3B71FE"/>
</svg>
