<svg width="16" height="16" viewBox="0 0 16 16" fill="none" xmlns="http://www.w3.org/2000/svg">
<path d="M7.99968 5.33301C7.47226 5.33301 6.95669 5.48941 6.51816 5.78242C6.07963 6.07544 5.73783 6.49192 5.536 6.97919C5.33416 7.46645 5.28135 8.00263 5.38425 8.51992C5.48714 9.0372 5.74112 9.51235 6.11406 9.88529C6.487 10.2582 6.96215 10.5122 7.47944 10.6151C7.99672 10.718 8.5329 10.6652 9.02017 10.4634C9.50744 10.2615 9.92391 9.91973 10.2169 9.48119C10.5099 9.04266 10.6663 8.52709 10.6663 7.99967C10.6663 7.29243 10.3854 6.61415 9.8853 6.11406C9.3852 5.61396 8.70692 5.33301 7.99968 5.33301ZM7.99968 9.33301C7.73597 9.33301 7.47818 9.25481 7.25892 9.1083C7.03965 8.96179 6.86875 8.75355 6.76784 8.50992C6.66692 8.26628 6.64052 7.9982 6.69196 7.73955C6.74341 7.48091 6.8704 7.24334 7.05687 7.05687C7.24334 6.8704 7.48092 6.74341 7.73956 6.69196C7.9982 6.64051 8.26629 6.66692 8.50992 6.76784C8.75356 6.86875 8.9618 7.03965 9.1083 7.25891C9.25481 7.47818 9.33301 7.73597 9.33301 7.99967C9.33301 8.3533 9.19254 8.69243 8.94249 8.94248C8.69244 9.19253 8.3533 9.33301 7.99968 9.33301Z" fill="#3B71FE"/>
<path d="M13.7385 9.16144L13.4643 9.00499C13.5877 8.34037 13.5877 7.65906 13.4643 6.99444L13.7385 6.83799C13.9493 6.71761 14.1341 6.55732 14.2823 6.36625C14.4306 6.17519 14.5393 5.9571 14.6024 5.72444C14.6655 5.49177 14.6816 5.24909 14.6499 5.01026C14.6182 4.77142 14.5393 4.54109 14.4177 4.33244C14.2961 4.12378 14.1341 3.94088 13.941 3.79417C13.748 3.64747 13.5276 3.53983 13.2926 3.47741C13.0575 3.41499 12.8123 3.399 12.5709 3.43037C12.3296 3.46173 12.0969 3.53984 11.8861 3.66021L11.6113 3.81727C11.0923 3.37844 10.4959 3.03825 9.8521 2.81383V2.50033C9.8521 2.0141 9.65693 1.54778 9.30954 1.20396C8.96214 0.860146 8.49097 0.666992 7.99967 0.666992C7.50838 0.666992 7.03721 0.860146 6.68981 1.20396C6.34242 1.54778 6.14725 2.0141 6.14725 2.50033V2.81383C5.50347 3.03906 4.90727 3.38008 4.38869 3.81971L4.11267 3.66144C3.68689 3.41832 3.18096 3.35256 2.70618 3.47863C2.23141 3.6047 1.82668 3.91226 1.58103 4.33366C1.33538 4.75506 1.26894 5.25578 1.39632 5.72566C1.5237 6.19554 1.83447 6.5961 2.26025 6.83921L2.53441 6.99566C2.41098 7.66028 2.41098 8.3416 2.53441 9.00621L2.26025 9.16266C1.83447 9.40577 1.5237 9.80633 1.39632 10.2762C1.26894 10.7461 1.33538 11.2468 1.58103 11.6682C1.82668 12.0896 2.23141 12.3972 2.70618 12.5232C3.18096 12.6493 3.68689 12.5836 4.11267 12.3404L4.38745 12.1834C4.9066 12.6223 5.50321 12.9625 6.14725 13.1868V13.5003C6.14725 13.9866 6.34242 14.4529 6.68981 14.7967C7.03721 15.1405 7.50838 15.3337 7.99967 15.3337C8.49097 15.3337 8.96214 15.1405 9.30954 14.7967C9.65693 14.4529 9.8521 13.9866 9.8521 13.5003V13.1868C10.4959 12.9616 11.0921 12.6206 11.6107 12.1809L11.8867 12.3386C12.3125 12.5817 12.8184 12.6475 13.2932 12.5214C13.7679 12.3953 14.1727 12.0878 14.4183 11.6664C14.664 11.245 14.7304 10.7443 14.603 10.2744C14.4756 9.8045 14.1649 9.40394 13.7391 9.16083L13.7385 9.16144ZM12.1652 6.85388C12.3743 7.60375 12.3743 8.39567 12.1652 9.14555C12.1286 9.27606 12.137 9.41489 12.1888 9.54021C12.2407 9.66553 12.3331 9.77026 12.4517 9.83794L13.121 10.2205C13.2629 10.3015 13.3665 10.435 13.4089 10.5916C13.4514 10.7483 13.4292 10.9151 13.3473 11.0556C13.2654 11.196 13.1305 11.2985 12.9723 11.3405C12.8141 11.3825 12.6454 11.3606 12.5035 11.2795L11.833 10.8958C11.7143 10.8278 11.5762 10.8008 11.4404 10.819C11.3046 10.8373 11.1787 10.8998 11.0827 10.9966C10.5331 11.5519 9.84072 11.9481 9.08025 12.1424C8.94752 12.1762 8.82991 12.2527 8.74595 12.3599C8.66199 12.4672 8.61646 12.599 8.61653 12.7346V13.5003C8.61653 13.6624 8.55148 13.8178 8.43568 13.9324C8.31988 14.0471 8.16282 14.1114 7.99906 14.1114C7.83529 14.1114 7.67824 14.0471 7.56244 13.9324C7.44664 13.8178 7.38158 13.6624 7.38158 13.5003V12.7352C7.38165 12.5996 7.33612 12.4678 7.25216 12.3606C7.16821 12.2533 7.0506 12.1768 6.91786 12.143C6.15735 11.9479 5.46515 11.5509 4.91601 10.9948C4.82001 10.8979 4.69417 10.8355 4.55834 10.8172C4.42251 10.7989 4.2844 10.8259 4.16578 10.8939L3.49644 11.2771C3.42619 11.3179 3.34848 11.3445 3.2678 11.3554C3.18712 11.3663 3.10505 11.3613 3.02632 11.3407C2.9476 11.3201 2.87376 11.2843 2.80908 11.2354C2.74439 11.1864 2.69012 11.1253 2.64941 11.0555C2.60869 10.9857 2.58232 10.9086 2.57183 10.8287C2.56133 10.7488 2.56691 10.6676 2.58825 10.5898C2.60958 10.512 2.64625 10.4392 2.69615 10.3755C2.74604 10.3118 2.80817 10.2585 2.87896 10.2187L3.5483 9.8361C3.66683 9.76842 3.75928 9.6637 3.81114 9.53838C3.863 9.41305 3.87132 9.27423 3.83481 9.14371C3.62571 8.39384 3.62571 7.60192 3.83481 6.85205C3.87067 6.72181 3.86194 6.58349 3.81 6.45867C3.75806 6.33386 3.66582 6.22957 3.54769 6.1621L2.87834 5.77955C2.73644 5.69851 2.63288 5.565 2.59044 5.40839C2.548 5.25178 2.57016 5.0849 2.65204 4.94446C2.73392 4.80402 2.86882 4.70153 3.02706 4.65953C3.1853 4.61752 3.35392 4.63945 3.49582 4.72049L4.1664 5.10427C4.28469 5.17242 4.42251 5.19973 4.5582 5.18192C4.69389 5.16411 4.81975 5.10219 4.91601 5.00588C5.46561 4.45059 6.15801 4.05439 6.91848 3.86005C7.05162 3.82617 7.16954 3.74928 7.25354 3.64158C7.33754 3.53387 7.38282 3.4015 7.3822 3.26544V2.50033C7.3822 2.33825 7.44726 2.18281 7.56305 2.0682C7.67885 1.9536 7.83591 1.88921 7.99967 1.88921C8.16344 1.88921 8.3205 1.9536 8.43629 2.0682C8.55209 2.18281 8.61715 2.33825 8.61715 2.50033V3.26544C8.61708 3.40108 8.66261 3.53289 8.74657 3.6401C8.83052 3.74731 8.94814 3.82383 9.08087 3.8576C9.84161 4.05264 10.534 4.4497 11.0833 5.00588C11.1793 5.10272 11.3052 5.16519 11.441 5.18345C11.5768 5.20171 11.715 5.17471 11.8336 5.10671L12.5029 4.72355C12.5732 4.68279 12.6509 4.65618 12.7315 4.64527C12.8122 4.63435 12.8943 4.63933 12.973 4.65993C13.0518 4.68053 13.1256 4.71634 13.1903 4.7653C13.255 4.81425 13.3092 4.87539 13.3499 4.94518C13.3907 5.01498 13.417 5.09205 13.4275 5.17197C13.438 5.2519 13.4324 5.33308 13.4111 5.41086C13.3898 5.48864 13.3531 5.56147 13.3032 5.62516C13.2533 5.68886 13.1912 5.74216 13.1204 5.78199L12.451 6.16455C12.3331 6.2322 12.2412 6.33656 12.1894 6.46136C12.1377 6.58616 12.1292 6.72439 12.1652 6.85449V6.85388Z" fill="#3B71FE"/>
</svg>
