<svg width="24" height="24" viewBox="0 0 24 24" fill="none" xmlns="http://www.w3.org/2000/svg">
<path d="M12 8C11.2089 8 10.4355 8.2346 9.77772 8.67412C9.11993 9.11365 8.60723 9.73836 8.30448 10.4693C8.00173 11.2002 7.92252 12.0044 8.07686 12.7804C8.2312 13.5563 8.61217 14.269 9.17158 14.8284C9.73099 15.3878 10.4437 15.7688 11.2196 15.9231C11.9956 16.0775 12.7998 15.9983 13.5307 15.6955C14.2616 15.3928 14.8864 14.8801 15.3259 14.2223C15.7654 13.5645 16 12.7911 16 12C16 10.9391 15.5786 9.92172 14.8284 9.17157C14.0783 8.42143 13.0609 8 12 8ZM12 14C11.6044 14 11.2178 13.8827 10.8889 13.6629C10.56 13.4432 10.3036 13.1308 10.1522 12.7654C10.0009 12.3999 9.96126 11.9978 10.0384 11.6098C10.1156 11.2219 10.3061 10.8655 10.5858 10.5858C10.8655 10.3061 11.2219 10.1156 11.6098 10.0384C11.9978 9.96126 12.3999 10.0009 12.7654 10.1522C13.1308 10.3036 13.4432 10.56 13.6629 10.8889C13.8827 11.2178 14 11.6044 14 12C14 12.5304 13.7893 13.0391 13.4142 13.4142C13.0391 13.7893 12.5304 14 12 14Z" fill="#3E444D"/>
<path d="M20.6082 13.7417L20.197 13.507C20.3821 12.5101 20.3821 11.4881 20.197 10.4912L20.6082 10.2565C20.9244 10.0759 21.2017 9.83549 21.424 9.54889C21.6464 9.26229 21.8095 8.93516 21.9041 8.58617C21.9987 8.23717 22.0229 7.87315 21.9754 7.51489C21.9279 7.15664 21.8095 6.81115 21.627 6.49817C21.4446 6.18518 21.2016 5.91083 20.9121 5.69077C20.6225 5.47071 20.2919 5.30926 19.9393 5.21562C19.5867 5.12199 19.2189 5.09802 18.8569 5.14506C18.4949 5.19211 18.1458 5.30927 17.8296 5.48983L17.4174 5.72542C16.639 5.06718 15.7444 4.55689 14.7786 4.22025V3.75C14.7786 3.02065 14.4859 2.32118 13.9648 1.80546C13.4437 1.28973 12.7369 1 12 1C11.2631 1 10.5563 1.28973 10.0352 1.80546C9.51411 2.32118 9.22137 3.02065 9.22137 3.75V4.22025C8.25569 4.5581 7.36139 5.06963 6.58352 5.72908L6.1695 5.49167C5.53082 5.12699 4.77192 5.02836 4.05976 5.21746C3.3476 5.40656 2.7405 5.8679 2.37203 6.5C2.00357 7.1321 1.9039 7.88318 2.09497 8.588C2.28604 9.29282 2.75219 9.89366 3.39087 10.2583L3.8021 10.493C3.61696 11.4899 3.61696 12.5119 3.8021 13.5088L3.39087 13.7435C2.75219 14.1082 2.28604 14.709 2.09497 15.4138C1.9039 16.1187 2.00357 16.8697 2.37203 17.5018C2.7405 18.1339 3.3476 18.5953 4.05976 18.7844C4.77192 18.9735 5.53082 18.8748 6.1695 18.5102L6.58166 18.2746C7.36039 18.9329 8.25531 19.4432 9.22137 19.7798V20.25C9.22137 20.9793 9.51411 21.6788 10.0352 22.1945C10.5563 22.7103 11.2631 23 12 23C12.7369 23 13.4437 22.7103 13.9648 22.1945C14.4859 21.6788 14.7786 20.9793 14.7786 20.25V19.7798C15.7443 19.4419 16.6386 18.9304 17.4165 18.2709L17.8305 18.5074C18.4692 18.8721 19.2281 18.9707 19.9402 18.7816C20.6524 18.5925 21.2595 18.1312 21.628 17.4991C21.9964 16.867 22.0961 16.1159 21.905 15.4111C21.714 14.7063 21.2478 14.1054 20.6091 13.7408L20.6082 13.7417ZM18.2482 10.2803C18.5619 11.4051 18.5619 12.593 18.2482 13.7178C18.1935 13.9136 18.2059 14.1218 18.2837 14.3098C18.3615 14.4978 18.5002 14.6549 18.678 14.7564L19.682 15.3303C19.8948 15.4518 20.0502 15.6521 20.1139 15.887C20.1775 16.1219 20.1443 16.3722 20.0215 16.5829C19.8986 16.7935 19.6963 16.9473 19.4589 17.0103C19.2216 17.0733 18.9686 17.0404 18.7558 16.9188L17.7499 16.3432C17.572 16.2412 17.3648 16.2007 17.1611 16.2281C16.9573 16.2554 16.7686 16.3492 16.6246 16.4944C15.8002 17.3274 14.7616 17.9216 13.6209 18.2132C13.4218 18.2638 13.2453 18.3786 13.1194 18.5394C12.9935 18.7002 12.9252 18.898 12.9253 19.1014V20.25C12.9253 20.4931 12.8277 20.7263 12.654 20.8982C12.4803 21.0701 12.2447 21.1667 11.9991 21.1667C11.7534 21.1667 11.5178 21.0701 11.3441 20.8982C11.1704 20.7263 11.0729 20.4931 11.0729 20.25V19.1023C11.073 18.8989 11.0047 18.7012 10.8787 18.5403C10.7528 18.3795 10.5764 18.2647 10.3773 18.2141C9.23651 17.9214 8.19821 17.3258 7.3745 16.4917C7.2305 16.3464 7.04175 16.2527 6.838 16.2253C6.63425 16.1979 6.42709 16.2384 6.24915 16.3404L5.24514 16.9152C5.13977 16.9763 5.02321 17.0162 4.90219 17.0326C4.78117 17.049 4.65807 17.0415 4.53997 17.0106C4.42188 16.9797 4.31113 16.926 4.2141 16.8525C4.11707 16.7791 4.03567 16.6874 3.9746 16.5827C3.91352 16.478 3.87397 16.3624 3.85823 16.2425C3.84249 16.1226 3.85086 16.0009 3.88286 15.8842C3.91487 15.7675 3.96987 15.6583 4.04471 15.5627C4.11955 15.4672 4.21274 15.3873 4.31893 15.3275L5.32294 14.7537C5.50073 14.6521 5.63941 14.4951 5.71719 14.3071C5.79498 14.1191 5.80747 13.9109 5.75271 13.7151C5.43905 12.5903 5.43905 11.4024 5.75271 10.2776C5.80649 10.0822 5.7934 9.87474 5.71549 9.68752C5.63757 9.5003 5.49922 9.34387 5.32202 9.24267L4.318 8.66883C4.10515 8.54728 3.94981 8.34701 3.88615 8.1121C3.82249 7.87719 3.85572 7.62687 3.97855 7.41621C4.10137 7.20555 4.30372 7.05181 4.54108 6.9888C4.77844 6.9258 5.03136 6.95869 5.24422 7.08025L6.25008 7.65592C6.42752 7.75814 6.63426 7.79911 6.83779 7.7724C7.04132 7.74568 7.23011 7.6528 7.3745 7.50833C8.19891 6.6754 9.23751 6.0811 10.3782 5.78958C10.5779 5.73877 10.7548 5.62344 10.8808 5.46188C11.0068 5.30031 11.0747 5.10176 11.0738 4.89767V3.75C11.0738 3.50688 11.1714 3.27373 11.3451 3.10182C11.5188 2.92991 11.7544 2.83333 12 2.83333C12.2456 2.83333 12.4812 2.92991 12.6549 3.10182C12.8286 3.27373 12.9262 3.50688 12.9262 3.75V4.89767C12.9261 5.10113 12.9944 5.29884 13.1203 5.45966C13.2463 5.62047 13.4227 5.73526 13.6218 5.78592C14.7629 6.07847 15.8015 6.67406 16.6255 7.50833C16.7695 7.65359 16.9583 7.7473 17.162 7.77469C17.3658 7.80207 17.5729 7.76158 17.7508 7.65958L18.7549 7.08483C18.8602 7.02369 18.9768 6.98379 19.0978 6.96741C19.2188 6.95103 19.3419 6.95851 19.46 6.98941C19.5781 7.02031 19.6889 7.07402 19.7859 7.14745C19.8829 7.22089 19.9643 7.31259 20.0254 7.41728C20.0865 7.52198 20.126 7.63759 20.1418 7.75747C20.1575 7.87736 20.1491 7.99913 20.1171 8.1158C20.0851 8.23247 20.0301 8.34172 19.9553 8.43726C19.8805 8.5328 19.7873 8.61275 19.6811 8.6725L18.6771 9.24633C18.5002 9.34781 18.3622 9.50435 18.2847 9.69155C18.2071 9.87875 18.1943 10.0861 18.2482 10.2812V10.2803Z" fill="#3E444D"/>
</svg>
