<svg width="24" height="24" viewBox="0 0 24 24" fill="none" xmlns="http://www.w3.org/2000/svg">
<path d="M15.3828 1.78125H15.2721C14.891 1.78487 14.5219 1.91496 14.2227 2.15108C13.9236 2.38721 13.7113 2.716 13.6192 3.08584C13.5206 3.44592 13.3065 3.76362 13.0097 3.99008C12.7129 4.21654 12.3499 4.3392 11.9766 4.3392C11.6032 4.3392 11.2403 4.21654 10.9435 3.99008C10.6467 3.76362 10.4325 3.44592 10.3339 3.08584C10.2418 2.716 10.0296 2.38721 9.7304 2.15108C9.43124 1.91496 9.06212 1.78487 8.68102 1.78125L8.57031 1.78125C7.44149 1.7826 6.35928 2.23163 5.56108 3.02983C4.76288 3.82803 4.31385 4.91024 4.3125 6.03906V19.6641C4.3125 20.3416 4.58165 20.9914 5.06075 21.4705C5.53985 21.9496 6.18964 22.2188 6.86719 22.2188H8.68102C9.06212 22.2151 9.43124 22.085 9.7304 21.8489C10.0296 21.6128 10.2418 21.284 10.3339 20.9142C10.4325 20.5541 10.6467 20.2364 10.9435 20.0099C11.2403 19.7835 11.6032 19.6608 11.9766 19.6608C12.3499 19.6608 12.7129 19.7835 13.0097 20.0099C13.3065 20.2364 13.5206 20.5541 13.6192 20.9142C13.7113 21.284 13.9236 21.6128 14.2227 21.8489C14.5219 22.085 14.891 22.2151 15.2721 22.2188H17.0859C17.7635 22.2188 18.4133 21.9496 18.8924 21.4705C19.3715 20.9914 19.6406 20.3416 19.6406 19.6641V6.03906C19.6393 4.91024 19.1902 3.82803 18.392 3.02983C17.5938 2.23163 16.5116 1.7826 15.3828 1.78125V1.78125ZM17.0859 20.5156L15.261 20.462C15.061 19.7394 14.6282 19.1029 14.0296 18.6514C13.431 18.1998 12.7002 17.9584 11.9504 17.9645C11.2007 17.9706 10.4739 18.2239 9.88276 18.6852C9.29163 19.1464 8.86922 19.7898 8.68102 20.5156H6.86719C6.64134 20.5156 6.42474 20.4259 6.26504 20.2662C6.10534 20.1065 6.01562 19.8899 6.01562 19.6641V16.2578H7.71875C7.9446 16.2578 8.1612 16.1681 8.3209 16.0084C8.48059 15.8487 8.57031 15.6321 8.57031 15.4062C8.57031 15.1804 8.48059 14.9638 8.3209 14.8041C8.1612 14.6444 7.9446 14.5547 7.71875 14.5547H6.01562V6.03906C6.01562 5.36152 6.28478 4.71172 6.76388 4.23263C7.24297 3.75353 7.89277 3.48438 8.57031 3.48438L8.69209 3.53802C8.89154 4.25625 9.32054 4.88949 9.91358 5.34108C10.5066 5.79267 11.2312 6.0378 11.9766 6.03906C12.732 6.03263 13.4647 5.77959 14.0631 5.31844C14.6616 4.85728 15.093 4.21327 15.2917 3.48438H15.3828C16.0604 3.48438 16.7102 3.75353 17.1892 4.23263C17.6683 4.71172 17.9375 5.36152 17.9375 6.03906V14.5547H16.2344C16.0085 14.5547 15.7919 14.6444 15.6322 14.8041C15.4725 14.9638 15.3828 15.1804 15.3828 15.4062C15.3828 15.6321 15.4725 15.8487 15.6322 16.0084C15.7919 16.1681 16.0085 16.2578 16.2344 16.2578H17.9375V19.6641C17.9375 19.8899 17.8478 20.1065 17.6881 20.2662C17.5284 20.4259 17.3118 20.5156 17.0859 20.5156Z" fill="#3E444D"/>
<path d="M12.8438 14.5781H11.1562C10.9325 14.5781 10.7179 14.667 10.5596 14.8253C10.4014 14.9835 10.3125 15.1981 10.3125 15.4219C10.3125 15.6457 10.4014 15.8603 10.5596 16.0185C10.7179 16.1767 10.9325 16.2656 11.1562 16.2656H12.8438C13.0675 16.2656 13.2821 16.1767 13.4404 16.0185C13.5986 15.8603 13.6875 15.6457 13.6875 15.4219C13.6875 15.1981 13.5986 14.9835 13.4404 14.8253C13.2821 14.667 13.0675 14.5781 12.8438 14.5781Z" fill="#3E444D"/>
</svg>
