<svg width="80" height="80" viewBox="0 0 80 80" fill="none" xmlns="http://www.w3.org/2000/svg">
<g clip-path="url(#clip0_433_2355)">
<path d="M32.1572 27.4417L34.04 29.0269L36.1696 26.0855H49.6446L51.6019 30.1445L53.7222 28.9572L52.0515 25.4872L56.694 19.8576L54.9085 18.1469L50.4813 23.5128H43.6772L43.5842 13.1514C43.7907 13.2938 44.0312 13.3682 44.2763 13.3653C44.5218 13.362 44.7611 13.2829 44.9662 13.1375C45.1712 12.9921 45.3333 12.7864 45.4333 12.5448C45.5341 12.7783 45.6937 12.9767 45.8939 13.1173C46.094 13.2579 46.3268 13.3351 46.5657 13.3402C46.8045 13.3454 47.04 13.2782 47.2452 13.1463C47.4504 13.0144 47.6172 12.8231 47.7265 12.5941C47.8163 12.8501 47.9746 13.0715 48.1814 13.2302C48.3882 13.3889 48.6341 13.4778 48.8879 13.4854C49.1416 13.4931 49.3918 13.4192 49.6065 13.2733C49.8212 13.1273 49.9908 12.9157 50.0937 12.6656C50.2183 12.9515 50.43 13.1828 50.6935 13.321C50.957 13.4592 51.2565 13.496 51.5421 13.4251C51.8277 13.3543 52.0822 13.1802 52.2632 12.9317C52.4442 12.6833 52.5409 12.3755 52.537 12.0596C52.5338 12.0024 52.5278 11.9455 52.519 11.8891H52.5343C52.5038 8.53626 48.1348 4.94553 42.9166 5.00238C37.6984 5.05922 33.6067 8.73552 33.6377 12.0936C33.6545 12.0936 33.6681 12.0936 33.685 12.0936C33.7203 12.392 33.8452 12.6697 34.0408 12.8844C34.2363 13.0991 34.4916 13.2389 34.7677 13.2824C35.0439 13.326 35.3256 13.271 35.57 13.1257C35.8144 12.9805 36.008 12.753 36.1212 12.478C36.2223 12.7112 36.382 12.9091 36.5821 13.0494C36.7823 13.1897 37.0149 13.2668 37.2536 13.272C37.4923 13.2771 37.7276 13.21 37.9327 13.0784C38.1379 12.9468 38.3048 12.7559 38.4144 12.5273C38.5044 12.7827 38.6628 13.0036 38.8694 13.1619C39.076 13.3202 39.3216 13.4088 39.575 13.4165C39.8284 13.4242 40.0782 13.3505 40.2927 13.2049C40.5072 13.0594 40.6768 12.8484 40.78 12.5988C40.8573 12.7775 40.9693 12.9362 41.1085 13.0641C41.2478 13.192 41.4109 13.2862 41.5868 13.3402C41.7627 13.3943 41.9474 13.4069 42.1282 13.3772C42.3091 13.3476 42.4819 13.2764 42.635 13.1684L42.728 23.5128H35.0077L32.1572 27.4417Z" fill="#3B71FE"/>
<path d="M61.3389 39.7717L62.056 41.0534C62.0919 41.0265 65.8894 38.6114 68.7546 40.216C70.3004 41.0943 72.0216 41.5531 73.769 41.5528C75.0887 41.5683 76.3983 41.3034 77.6231 40.7733L77.0511 39.4102C75.8129 39.9113 74.4902 40.1241 73.1702 40.0346C71.8501 39.9452 70.5626 39.5554 69.3924 38.8909C65.8438 36.903 61.5194 39.6551 61.3389 39.7717Z" fill="#3B71FE"/>
<path d="M74.2847 59.0187C71.9023 60.7493 67.9606 59.8814 67.9237 59.8743L67.6377 61.3395C68.4891 61.5155 69.3543 61.602 70.2213 61.5979C71.9203 61.6676 73.6015 61.2031 75.06 60.2611C77.1107 58.7702 78.7352 60.8355 78.913 61.0734L80.0004 60.1445C79.1294 58.9525 76.8128 57.1908 74.2847 59.0187Z" fill="#3B71FE"/>
<path d="M68.1846 66.6638L68.8783 67.9532C72.0637 65.9717 73.5208 67.7141 73.5762 67.7826L74.6473 66.8315C74.5614 66.7219 72.4372 64.0196 68.1846 66.6638Z" fill="#3B71FE"/>
<path d="M71.4684 53.2485L71.1699 54.7136C71.4703 54.7883 71.7773 54.8276 72.0855 54.8308C72.7245 54.8196 73.3494 54.6272 73.8975 54.2729C74.6261 53.8662 75.2024 53.5433 77.2259 54.6351L77.8463 53.2948C75.3861 51.9697 74.3515 52.3331 73.2566 52.9432C72.9959 53.1286 72.7016 53.2518 72.3931 53.3045C72.0847 53.3571 71.7694 53.3381 71.4684 53.2485Z" fill="#3B71FE"/>
<path d="M77.5419 42.6966C77.6196 39.7189 72.6885 49.2264 72.6885 49.2264H79.4578C79.4578 49.2264 77.468 45.6743 77.5419 42.6966Z" fill="#3B71FE"/>
<path d="M69.0153 48.7956C68.3324 45.1691 65.8619 42.9351 62.558 42.9351H62.4444L62.5265 48.9175C63.0234 48.9011 63.3741 48.9057 63.578 49.9841C64.2885 53.7612 60.6807 63.1608 52.9045 66.5599C43.3825 70.691 36.3674 68.9153 32.1583 66.7006C29.0295 65.1263 26.4025 62.5897 24.6077 59.4101L28.3482 58.9659C28.3482 58.9659 20.8297 48.407 20.5034 45.9181C20.1772 43.4291 14.5801 60.6016 14.5801 60.6016L18.7381 60.1081C20.5975 64.9852 24.5805 69.3677 29.7204 72.0788C33.4906 74.0347 37.6262 75.0337 41.8102 74.9991C46.3316 74.9513 50.8026 73.9699 54.9813 72.1081C64.5642 67.9137 70.3946 56.1312 69.0153 48.7956Z" fill="#3B71FE"/>
<path d="M17.476 12.6045C14.8664 14.5443 15.0023 19.0821 15.8488 19.599C16.5909 20.0509 20.0558 18.5441 21.6042 16.65L22.5143 18.7012L21.826 18.9356L22.9302 21.4263L22.3501 21.6268L23.6348 24.5254L23.0786 24.717L24.4922 27.8998L24.0649 28.0464L25.5964 31.5041L24.7918 31.7807L26.5707 35.7963L26.2113 35.9205L27.583 39.0149C26.3749 41.8501 25.8445 44.9661 26.0402 48.0789C26.2359 51.1918 27.1513 54.2022 28.7032 56.8358C30.255 59.4695 32.3938 61.6424 34.9245 63.1565C37.4552 64.6706 40.2972 65.4776 43.1915 65.5041C46.0858 65.5305 48.9401 64.7755 51.4943 63.3078C54.0484 61.8402 56.221 59.7066 57.814 57.1017C59.407 54.4969 60.3697 51.5035 60.6143 48.3948C60.8589 45.286 60.3775 42.1606 59.2142 39.3038L60.8083 37.0276L60.0324 36.6015L61.7586 34.1337L61.2301 33.8465L62.716 31.7226L62.2039 31.4413L63.5745 29.4804L63.2097 29.28L64.4531 27.5002L64.0725 27.2921L65.1435 25.7578L64.9603 25.6605L65.2115 25.3048C65.5779 27.0337 66.6903 28.4425 67.2677 28.5011C68.0321 28.5744 69.6914 25.4742 68.454 23.3263C69.5278 24.3343 70.9919 25.5082 71.2887 24.7604C71.5497 24.1157 71.1474 22.3945 70.2981 21.3027C71.2599 20.8497 71.7884 20.2794 71.0267 19.6113C70.1845 18.8665 69.1483 19.2269 68.2224 19.9043C68.7068 18.8067 68.8036 17.5725 67.7298 16.5797C66.8224 15.7375 66.3521 16.2521 66.1271 17.2706C65.0859 16.8213 63.9671 16.6196 62.847 16.6793C62.0756 16.8258 62.4474 17.9909 63.9806 19.3476C61.7744 18.9081 59.6932 21.1526 59.8666 21.8454C60.0177 22.4496 62.4415 23.5449 64.104 23.447L63.5854 24.9069L63.133 24.6602L62.4991 26.4324L62.1185 26.2243L61.3846 28.2831L61.017 28.0809L60.208 30.3484L59.9291 30.1942L59.0495 32.6556L58.5194 32.3626L57.5011 35.2179L57.2624 35.0895L57.121 35.4827C55.4458 33.113 53.2733 31.205 50.7817 29.9153C50.7592 29.8864 50.7351 29.859 50.7094 29.8332L50.6801 29.8649C48.38 28.6978 45.869 28.0936 43.3268 28.0956C42.9414 28.0956 42.5597 28.1149 42.1808 28.1407C37.6494 28.4683 33.4191 30.7033 30.4031 34.3634L29.7148 30.0852L28.9112 30.3636L28.3039 26.5894L27.5227 26.8573L26.9649 23.3814L26.4098 23.573L25.902 20.4084L25.3219 20.6088L24.8869 17.8866L24.6124 17.9821L24.5096 17.3498C26.5614 18.7164 29.0422 18.9467 29.6653 18.38C30.495 17.6264 29.1064 12.6742 25.7872 11.8233C27.8337 11.6873 30.4281 11.3011 29.9899 10.2158C29.6126 9.27515 27.5368 7.95888 25.6318 7.76431C26.1423 6.26578 26.1075 5.11419 24.7015 5.25133C23.1423 5.4037 22.4724 6.89637 22.2196 8.58771C21.6216 6.94677 20.5174 5.58596 18.4819 5.73423C16.76 5.86082 16.7975 6.89227 17.5706 8.17572C16.1094 8.83875 14.8036 9.84435 13.748 11.1195C13.1293 12.0958 14.6348 12.884 17.476 12.6045ZM64.62 23.3726L64.5216 23.648L64.1486 23.4418C64.3074 23.4345 64.4652 23.4114 64.62 23.3726ZM27.427 47.1909C28.7383 46.3828 30.1341 45.7458 31.585 45.2932C31.5682 45.7896 31.5519 46.2831 31.5519 46.807C31.5519 47.631 31.578 48.4116 31.6182 49.17C30.164 48.726 28.76 48.1096 27.4319 47.3321C27.427 47.2835 27.427 47.2372 27.427 47.1909ZM27.5711 49.153C28.9083 49.845 30.3021 50.4022 31.7345 50.8173C31.9009 52.6383 32.2132 54.4403 32.668 56.2032C31.3074 55.6604 30.0297 54.9017 28.877 53.9521C28.2242 52.4307 27.7841 50.8134 27.5711 49.153ZM30.4346 56.8238C31.3372 57.312 32.2704 57.7312 33.2275 58.0785C33.563 59.0855 33.966 60.0648 34.4334 61.0088C32.8847 59.8752 31.5315 58.459 30.4346 56.8238ZM38.5419 42.2809C36.7187 42.4625 34.9093 42.7803 33.1269 43.2321C33.2896 41.1733 33.6451 39.1375 34.1882 37.1559C35.8854 36.6018 37.6281 36.2246 39.3922 36.0295C38.9716 38.0889 38.6874 40.178 38.5419 42.2809ZM39.5352 57.9648C37.7746 57.7678 36.0352 57.3917 34.3404 56.8414C33.7938 55.0128 33.4174 53.1301 33.2166 51.2211C34.9966 51.6535 36.8018 51.9554 38.6197 52.1248C38.7909 54.0933 39.097 56.0455 39.5352 57.9654V57.9648ZM38.4566 43.8351C38.4163 44.7593 38.3843 45.7134 38.3843 46.7291C38.3843 48.0992 38.4288 49.3745 38.5033 50.5683C36.6746 50.385 34.8603 50.0614 33.0742 49.6001C33.0144 48.7134 32.973 47.7951 32.973 46.8076C32.973 46.1348 32.9899 45.4855 33.016 44.859C34.8039 44.375 36.6223 44.0328 38.4566 43.8351ZM37.1055 62.5776C36.2129 61.3908 35.493 60.0644 34.9705 58.6441C36.6026 59.0939 38.2662 59.3981 39.9446 59.5536C40.3498 61.0431 40.9048 62.4804 41.5996 63.84C40.0519 63.6609 38.5374 63.2355 37.1055 62.5776ZM43.5878 43.5521C44.605 43.5521 45.5483 43.5878 46.4568 43.6447C46.515 44.6996 46.5552 45.7937 46.5552 46.9723C46.5552 48.3126 46.5079 49.5509 46.4329 50.7189C45.4646 50.7816 44.4528 50.8238 43.3595 50.8238C42.1427 50.8238 41.0146 50.7746 39.9424 50.6966C39.8576 49.4659 39.8076 48.1543 39.8076 46.7291C39.8076 45.6613 39.8408 44.6638 39.8908 43.6992C41.0434 43.6078 42.2672 43.5521 43.5878 43.5521ZM39.9859 42.152C40.1424 40.0435 40.4439 37.9504 40.8879 35.8901C41.649 35.8379 42.4309 35.8004 43.2714 35.8004C44.0206 35.8004 44.7312 35.8285 45.4178 35.8707C45.8737 37.9159 46.1858 39.9952 46.3513 42.0911C45.476 42.0448 44.5572 42.0131 43.5878 42.0131C42.3042 42.0178 41.1141 42.0717 39.9859 42.1526V42.152ZM46.3116 52.2713C46.1362 54.2511 45.8184 56.2133 45.3613 58.1401C44.7453 58.1717 44.1043 58.194 43.4339 58.194C42.5972 58.194 41.8149 58.1565 41.0559 58.1014C40.5875 56.1786 40.2603 54.219 40.0773 52.2409C41.1135 52.3094 42.1976 52.3581 43.3627 52.3581C44.4006 52.3598 45.3803 52.327 46.3116 52.2713ZM43.2578 63.8036C42.4951 62.5222 41.9007 61.1332 41.4914 59.6761C42.1144 59.7077 42.7625 59.7253 43.4339 59.7253C43.9559 59.7253 44.4495 59.706 44.9437 59.6878C44.5421 61.1297 43.9758 62.5123 43.2578 63.8036ZM49.7547 62.485C48.2089 63.2227 46.5633 63.6883 44.8807 63.864C45.5504 62.503 46.0864 61.0704 46.4802 59.5894C48.2636 59.4489 50.0323 59.1416 51.7663 58.671C51.2731 60.0419 50.5953 61.327 49.7547 62.485ZM46.8732 58.0205C47.3015 56.093 47.5982 54.1342 47.7611 52.16C49.6924 51.9951 51.6094 51.6735 53.4958 51.1977C53.293 53.1293 52.9166 55.0351 52.372 56.8882C50.5786 57.4621 48.7366 57.8414 46.8732 58.0205ZM47.8888 43.7513C49.8489 43.9231 51.793 44.2641 53.7024 44.7711C53.7301 45.3706 53.7442 45.9871 53.7442 46.6318C53.7442 47.6685 53.6997 48.6331 53.6355 49.562C51.7438 50.0767 49.8165 50.4253 47.8725 50.6046C47.9389 49.4694 47.9764 48.2639 47.9764 46.9711C47.9791 45.8348 47.9416 44.7758 47.8888 43.7513ZM47.7959 42.196C47.6409 40.1092 47.3475 38.0371 46.9178 35.9955C48.8469 36.1935 50.7521 36.6039 52.6036 37.2204C53.1161 39.1571 53.4506 41.1434 53.6023 43.1506C51.6919 42.6752 49.7509 42.356 47.7959 42.196ZM52.391 60.891C52.8213 59.991 53.1944 59.0605 53.5078 58.1061C54.4247 57.7738 55.3191 57.3729 56.1843 56.9064C55.1336 58.4516 53.8516 59.7976 52.391 60.8892V60.891ZM57.7783 53.9978C56.6501 54.9521 55.3916 55.7125 54.0476 56.2518C54.5043 54.4566 54.8177 52.6226 54.9844 50.7699C56.4214 50.3322 57.8097 49.7263 59.1245 48.9631C58.9191 50.7055 58.465 52.4032 57.7783 53.9961V53.9978ZM55.098 49.1073C55.1399 48.3143 55.1687 47.498 55.1687 46.6335C55.1687 46.1413 55.1507 45.6777 55.1393 45.21C56.5621 45.6533 57.926 46.2923 59.1973 47.1112C57.9251 47.9812 56.5449 48.6527 55.098 49.1055V49.1073ZM58.0159 40.1471C58.6589 41.7955 59.0569 43.5429 59.1952 45.3249C57.8773 44.5826 56.4905 43.9921 55.0578 43.5632C54.9395 41.6394 54.6667 39.7304 54.2423 37.8574C55.6043 38.4006 56.878 39.1728 58.0159 40.1454V40.1471ZM56.5186 37.1911L56.4893 37.2661C55.6062 36.7745 54.6914 36.3522 53.7519 36.0026C53.4247 34.9014 53.0188 33.8292 52.5378 32.7957C54.0977 33.9927 55.446 35.4814 56.5186 37.1911ZM49.9146 31.1641C50.8266 32.4622 51.5487 33.9032 52.0556 35.437C50.2518 34.9205 48.4082 34.5811 46.5476 34.4232C46.1434 32.7963 45.5903 31.2168 44.8964 29.7078C46.6321 29.8922 48.3276 30.3843 49.9146 31.1641ZM43.0023 29.631C43.0784 29.631 43.1523 29.6263 43.2284 29.6252C43.9966 31.1059 44.5989 32.6797 45.0226 34.3136C44.4566 34.2866 43.8781 34.2685 43.2714 34.2685C42.5793 34.2685 41.9122 34.2878 41.2723 34.3206C41.6863 32.6933 42.2666 31.1205 43.0023 29.631ZM36.9267 31.0821C38.3277 30.4156 39.8111 29.9722 41.3305 29.7658C40.6694 31.2683 40.1415 32.8348 39.7538 34.4443C38.0674 34.6015 36.3961 34.9102 34.7574 35.3673C35.2716 33.8271 36.0033 32.3816 36.9267 31.0821ZM34.3018 32.6644C33.8022 33.7172 33.3796 34.8104 33.0377 35.934C32.0148 36.3081 31.0213 36.7702 30.0671 37.3159C31.1926 35.4908 32.6297 33.9129 34.3018 32.6662V32.6644ZM28.6633 40.1301L28.6894 40.1583C29.8362 39.1413 31.1351 38.3418 32.5305 37.7941C32.0875 39.7134 31.8006 41.6706 31.6731 43.6435C30.2236 44.0779 28.8172 44.6648 27.4743 45.3958C27.6059 43.5832 28.0073 41.8052 28.6633 40.1301ZM22.0375 16.0347L22.2066 16.4173L21.6363 16.616C21.785 16.4348 21.9192 16.2403 22.0375 16.0347Z" fill="#3B71FE"/>
<path d="M2.72941 33.9217L2.71744 33.9558C2.01921 35.9517 2.15727 38.2396 3.10132 40.3177C4.04537 42.3957 5.71831 44.0941 7.75311 45.0403C10.528 46.3265 14.624 46.7855 19.929 46.4049C22.3383 46.2291 24.7204 45.9097 27.0635 45.4481C27.1068 45.4389 27.1463 45.4191 27.1789 45.3904C27.2114 45.3617 27.236 45.3248 27.2509 45.2827L27.2534 45.2755C27.2674 45.2316 27.2704 45.1837 27.2623 45.1358C27.2542 45.088 27.2351 45.0415 27.2067 45.0004C27.1851 44.9691 25.0157 41.8441 22.2109 38.4529C18.4253 33.8758 15.3422 31.0159 13.0482 29.9526C11.0113 29.0114 8.78085 28.9007 6.84631 29.6449C4.91177 30.389 3.43117 31.9271 2.72941 33.9217H2.72941ZM11.8126 34.0931C12.5171 34.4197 13.134 34.9437 13.5851 35.5988C14.0363 36.254 14.3016 37.0108 14.3473 37.7737C14.3931 38.5366 14.2173 39.2712 13.8421 39.8847C13.467 40.4982 12.9095 40.963 12.2399 41.2203C11.5704 41.4776 10.819 41.5158 10.0807 41.3302C9.34242 41.1446 8.65044 40.7435 8.09226 40.1776C7.53407 39.6116 7.13476 38.9063 6.94482 38.1508C6.75487 37.3952 6.78283 36.6234 7.02515 35.933C7.35096 35.0078 8.03801 34.2944 8.93556 33.9494C9.83311 33.6044 10.8678 33.6559 11.8127 34.0926L11.8126 34.0931Z" fill="#3B71FE"/>
</g>
<defs>
<clipPath id="clip0_433_2355">
<rect width="80" height="80" fill="white"/>
</clipPath>
</defs>
</svg>
