<svg width="80" height="80" viewBox="0 0 80 80" fill="none" xmlns="http://www.w3.org/2000/svg">
<path d="M70.3334 18.9994C69.4105 18.9994 68.5083 19.2731 67.7409 19.7858C66.9735 20.2986 66.3754 21.0274 66.0222 21.88C65.669 22.7327 65.5766 23.671 65.7567 24.5761C65.9367 25.4813 66.3811 26.3128 67.0337 26.9654C67.6864 27.618 68.5178 28.0624 69.423 28.2425C70.3282 28.4226 71.2665 28.3301 72.1191 27.977C72.9718 27.6238 73.7006 27.0257 74.2133 26.2583C74.7261 25.4909 74.9998 24.5887 74.9998 23.6658C74.9985 22.4285 74.5065 21.2424 73.6317 20.3675C72.7568 19.4926 71.5706 19.0006 70.3334 18.9994ZM70.3334 25.9995C69.8719 25.9995 69.4208 25.8627 69.0371 25.6063C68.6534 25.35 68.3544 24.9856 68.1778 24.5592C68.0012 24.1329 67.955 23.6638 68.045 23.2112C68.1351 22.7586 68.3573 22.3428 68.6836 22.0165C69.0099 21.6902 69.4256 21.468 69.8782 21.378C70.3308 21.288 70.7999 21.3342 71.2262 21.5108C71.6526 21.6874 72.017 21.9864 72.2734 22.3701C72.5297 22.7538 72.6666 23.2049 72.6666 23.6664C72.666 24.285 72.4199 24.8781 71.9825 25.3155C71.5451 25.7529 70.952 25.9989 70.3334 25.9995Z" fill="#3B71FE"/>
<path d="M9.66639 57.4996C8.74346 57.4996 7.84127 57.7733 7.07388 58.2861C6.3065 58.7988 5.7084 59.5276 5.35521 60.3803C5.00202 61.2329 4.90961 62.1712 5.08967 63.0764C5.26972 63.9816 5.71415 64.813 6.36675 65.4656C7.01936 66.1183 7.85083 66.5627 8.75602 66.7427C9.66121 66.9228 10.5995 66.8304 11.4521 66.4772C12.3048 66.124 13.0336 65.5259 13.5463 64.7585C14.0591 63.9911 14.3328 63.0889 14.3328 62.166C14.3314 60.9288 13.8393 59.7427 12.9645 58.8679C12.0897 57.9931 10.9036 57.501 9.66639 57.4996ZM9.66639 64.4998C9.20493 64.4998 8.75383 64.363 8.37014 64.1066C7.98644 63.8502 7.68739 63.4858 7.5108 63.0595C7.3342 62.6331 7.288 62.164 7.37803 61.7114C7.46805 61.2588 7.69027 60.8431 8.01657 60.5168C8.34287 60.1905 8.75861 59.9683 9.2112 59.8782C9.6638 59.7882 10.1329 59.8344 10.5593 60.011C10.9856 60.1876 11.35 60.4867 11.6064 60.8703C11.8627 61.254 11.9996 61.7051 11.9996 62.1666C11.999 62.7852 11.753 63.3783 11.3155 63.8157C10.8781 64.2532 10.285 64.4992 9.66639 64.4998Z" fill="#3B71FE"/>
<path d="M68.0713 20.4743L58.0063 15.6153C57.7277 15.4808 57.4071 15.4626 57.115 15.5646C56.8229 15.6665 56.5833 15.8803 56.4489 16.159C56.3145 16.4376 56.2962 16.7582 56.3982 17.0503C56.5002 17.3423 56.714 17.5819 56.9926 17.7164L67.0576 22.5754C67.3363 22.7098 67.6569 22.728 67.9489 22.6261C68.241 22.5241 68.4806 22.3103 68.615 22.0317C68.7495 21.7531 68.7677 21.4325 68.6657 21.1404C68.5638 20.8483 68.35 20.6087 68.0713 20.4743Z" fill="#3B71FE"/>
<path d="M57.5006 65.6665C56.5775 65.6664 55.6751 65.94 54.9076 66.4528C54.14 66.9655 53.5418 67.6943 53.1884 68.5471C52.8351 69.3999 52.7426 70.3383 52.9226 71.2436C53.1026 72.1489 53.5471 72.9806 54.1997 73.6333C54.8524 74.2861 55.684 74.7306 56.5893 74.9107C57.4946 75.0908 58.433 74.9984 59.2858 74.6452C60.1386 74.292 60.8675 73.6939 61.3804 72.9264C61.8932 72.1589 62.1669 71.2565 62.1669 70.3335C62.1657 69.0962 61.6737 67.9099 60.7989 67.035C59.924 66.16 58.7378 65.6679 57.5006 65.6665ZM57.5006 72.6667C57.0391 72.6667 56.588 72.5298 56.2043 72.2735C55.8206 72.0171 55.5216 71.6527 55.345 71.2263C55.1684 70.8 55.1222 70.3309 55.2122 69.8783C55.3022 69.4257 55.5244 69.0099 55.8507 68.6836C56.1771 68.3573 56.5928 68.1351 57.0454 68.0451C57.498 67.9551 57.9671 68.0013 58.3934 68.1779C58.8198 68.3545 59.1842 68.6535 59.4405 69.0372C59.6969 69.4209 59.8337 69.872 59.8337 70.3335C59.8336 70.9524 59.5878 71.5459 59.1503 71.9837C58.7128 72.4215 58.1195 72.6678 57.5006 72.6684V72.6667Z" fill="#3B71FE"/>
<path d="M55.2383 67.1412L45.1733 62.2821C45.0353 62.2156 44.8856 62.1768 44.7327 62.1681C44.5797 62.1594 44.4266 62.1809 44.282 62.2314C44.1374 62.2819 44.0041 62.3604 43.8898 62.4624C43.7755 62.5644 43.6824 62.6879 43.6159 62.8258C43.5493 62.9638 43.5106 63.1135 43.5019 63.2664C43.4932 63.4194 43.5147 63.5725 43.5652 63.7171C43.6157 63.8618 43.6941 63.995 43.7961 64.1093C43.8981 64.2236 44.0216 64.3167 44.1596 64.3832L54.2246 69.2423C54.3626 69.3088 54.5123 69.3476 54.6652 69.3563C54.8182 69.3649 54.9713 69.3434 55.1159 69.293C55.2605 69.2425 55.3938 69.164 55.5081 69.062C55.6224 68.96 55.7155 68.8365 55.782 68.6986C55.8486 68.5606 55.8873 68.4109 55.896 68.258C55.9047 68.105 55.8832 67.9519 55.8327 67.8073C55.7822 67.6626 55.7038 67.5294 55.6018 67.4151C55.4998 67.3008 55.3763 67.2077 55.2383 67.1412Z" fill="#3B71FE"/>
<path d="M39.9994 36.4999C39.0765 36.4999 38.1743 36.7736 37.4069 37.2863C36.6395 37.7991 36.0414 38.5278 35.6882 39.3805C35.335 40.2332 35.2426 41.1714 35.4227 42.0766C35.6027 42.9818 36.0472 43.8133 36.6998 44.4659C37.3524 45.1185 38.1838 45.5629 39.089 45.743C39.9942 45.923 40.9325 45.8306 41.7851 45.4774C42.6378 45.1243 43.3666 44.5262 43.8793 43.7588C44.3921 42.9914 44.6658 42.0892 44.6658 41.1663C44.6646 39.929 44.1725 38.7428 43.2977 37.868C42.4228 36.9931 41.2366 36.5011 39.9994 36.4999ZM39.9994 43.5C39.5379 43.5 39.0868 43.3632 38.7031 43.1068C38.3194 42.8505 38.0204 42.4861 37.8438 42.0597C37.6672 41.6334 37.621 41.1643 37.711 40.7117C37.8011 40.2591 38.0233 39.8433 38.3496 39.517C38.6759 39.1907 39.0916 38.9685 39.5442 38.8785C39.9968 38.7885 40.4659 38.8347 40.8923 39.0113C41.3186 39.1878 41.683 39.4869 41.9394 39.8706C42.1957 40.2543 42.3326 40.7054 42.3326 41.1668C42.332 41.7855 42.086 42.3786 41.6485 42.816C41.2111 43.2534 40.618 43.4994 39.9994 43.5Z" fill="#3B71FE"/>
<path d="M37.9494 38.1053L30.2181 32.0793C30.0972 31.9851 29.959 31.9156 29.8112 31.8748C29.6635 31.8341 29.5091 31.8228 29.357 31.8416C29.2049 31.8605 29.058 31.9091 28.9247 31.9848C28.7914 32.0604 28.6743 32.1615 28.5801 32.2824C28.3898 32.5266 28.3043 32.8363 28.3424 33.1435C28.3805 33.4507 28.539 33.7302 28.7832 33.9205L36.5144 39.9464C36.7586 40.1367 37.0683 40.2222 37.3755 40.1841C37.6827 40.146 37.9622 39.9875 38.1525 39.7433C38.3428 39.4992 38.4283 39.1894 38.3902 38.8822C38.3521 38.575 38.1936 38.2955 37.9494 38.1053Z" fill="#3B71FE"/>
<path d="M61.0004 35.3329C58.4622 35.3329 55.981 36.0856 53.8706 37.4957C51.7601 38.9059 50.1152 40.9102 49.1439 43.2552C48.1726 45.6002 47.9184 48.1806 48.4136 50.67C48.9088 53.1594 50.131 55.4461 51.9258 57.2409C53.7206 59.0357 56.0073 60.258 58.4968 60.7532C60.9862 61.2483 63.5666 60.9942 65.9116 60.0229C68.2566 59.0515 70.2609 57.4066 71.671 55.2962C73.0812 53.1857 73.8339 50.7045 73.8339 48.1663C73.8299 44.7639 72.4765 41.502 70.0706 39.0961C67.6648 36.6903 64.4028 35.3369 61.0004 35.3329ZM61.0004 58.666C58.9232 58.666 56.8927 58.05 55.1655 56.896C53.4384 55.7419 52.0922 54.1017 51.2973 52.1826C50.5024 50.2635 50.2944 48.1518 50.6997 46.1145C51.1049 44.0772 52.1052 42.2058 53.574 40.737C55.0428 39.2682 56.9142 38.2679 58.9515 37.8627C60.9888 37.4574 63.1005 37.6654 65.0196 38.4603C66.9387 39.2552 68.579 40.6014 69.733 42.3285C70.887 44.0556 71.503 46.0862 71.503 48.1634C71.5007 50.9482 70.3934 53.6182 68.4243 55.5873C66.4552 57.5564 63.7852 58.6637 61.0004 58.666Z" fill="#3B71FE"/>
<path d="M60.9999 40C60.077 40 59.1748 40.2737 58.4074 40.7864C57.64 41.2992 57.0419 42.028 56.6887 42.8806C56.3355 43.7333 56.2431 44.6716 56.4232 45.5768C56.6032 46.482 57.0476 47.3134 57.7003 47.966C58.3529 48.6186 59.1843 49.0631 60.0895 49.2431C60.9947 49.4232 61.933 49.3307 62.7856 48.9776C63.6383 48.6244 64.3671 48.0263 64.8798 47.2589C65.3926 46.4915 65.6663 45.5893 65.6663 44.6664C65.665 43.4292 65.173 42.243 64.2982 41.3681C63.4233 40.4933 62.2371 40.0012 60.9999 40ZM60.9999 47.0002C60.5384 47.0002 60.0873 46.8633 59.7036 46.607C59.3199 46.3506 59.0209 45.9862 58.8443 45.5598C58.6677 45.1335 58.6215 44.6644 58.7115 44.2118C58.8016 43.7592 59.0238 43.3435 59.3501 43.0172C59.6764 42.6909 60.0921 42.4686 60.5447 42.3786C60.9973 42.2886 61.4664 42.3348 61.8928 42.5114C62.3191 42.688 62.6835 42.987 62.9399 43.3707C63.1962 43.7544 63.3331 44.2055 63.3331 44.667C63.3325 45.2856 63.0864 45.8787 62.649 46.3161C62.2116 46.7535 61.6185 46.9995 60.9999 47.0002Z" fill="#3B71FE"/>
<path d="M64.3865 51.6665H57.6156C56.6696 51.6549 55.7576 52.019 55.0798 52.679C54.4019 53.339 54.0136 54.2409 54 55.1869V58.2623C53.9998 58.4667 54.0533 58.6676 54.1551 58.8449C54.257 59.0222 54.4035 59.1696 54.5803 59.2725C56.5292 60.406 58.7436 61.0031 60.9981 61.0031C63.2527 61.0031 65.4671 60.406 67.416 59.2725C67.5927 59.1699 67.7392 59.0226 67.8411 58.8455C67.9429 58.6684 67.9964 58.4677 67.9963 58.2634V55.1881C67.983 54.2429 67.5956 53.3416 66.919 52.6815C66.2424 52.0214 65.3317 51.6565 64.3865 51.6665ZM65.6689 57.5642C64.2168 58.278 62.6203 58.6492 61.0022 58.6492C59.3841 58.6492 57.7876 58.278 56.3355 57.5642V55.1852C56.3492 54.8582 56.4918 54.55 56.7321 54.3279C56.9724 54.1058 57.2909 53.9878 57.6179 53.9997H64.3865C64.7135 53.9878 65.032 54.1058 65.2723 54.3279C65.5125 54.55 65.6551 54.8582 65.6689 55.1852V57.5642Z" fill="#3B71FE"/>
<path d="M32.9999 49.3333C30.4617 49.3333 27.9805 50.0859 25.8701 51.4961C23.7596 52.9062 22.1147 54.9105 21.1434 57.2555C20.1721 59.6005 19.9179 62.1809 20.4131 64.6704C20.9083 67.1598 22.1305 69.4465 23.9253 71.2413C25.7201 73.0361 28.0068 74.2583 30.4963 74.7535C32.9857 75.2487 35.5661 74.9946 37.9111 74.0232C40.2561 73.0519 42.2604 71.407 43.6706 69.2966C45.0807 67.1861 45.8334 64.7049 45.8334 62.1667C45.8294 58.7643 44.476 55.5024 42.0701 53.0965C39.6643 50.6906 36.4024 49.3372 32.9999 49.3333ZM32.9999 72.6663C30.9227 72.6663 28.8922 72.0504 27.165 70.8963C25.4379 69.7423 24.0918 68.102 23.2968 66.1829C22.5019 64.2638 22.2939 62.1521 22.6992 60.1148C23.1044 58.0775 24.1047 56.2062 25.5735 54.7373C27.0423 53.2685 28.9137 52.2683 30.951 51.863C32.9883 51.4578 35.1 51.6658 37.0191 52.4607C38.9382 53.2556 40.5785 54.6017 41.7325 56.3289C42.8865 58.056 43.5025 60.0866 43.5025 62.1638C43.5002 64.9485 42.3929 67.6186 40.4238 69.5877C38.4547 71.5568 35.7847 72.664 32.9999 72.6663Z" fill="#3B71FE"/>
<path d="M33.0004 53.9995C32.0775 53.9995 31.1753 54.2732 30.4079 54.7859C29.6405 55.2987 29.0424 56.0275 28.6892 56.8802C28.336 57.7328 28.2436 58.6711 28.4236 59.5763C28.6037 60.4815 29.0481 61.3129 29.7007 61.9655C30.3533 62.6181 31.1848 63.0626 32.09 63.2426C32.9952 63.4227 33.9335 63.3303 34.7861 62.9771C35.6388 62.6239 36.3676 62.0258 36.8803 61.2584C37.3931 60.491 37.6668 59.5888 37.6668 58.6659C37.6655 57.4287 37.1735 56.2425 36.2987 55.3676C35.4238 54.4928 34.2376 54.0007 33.0004 53.9995ZM33.0004 60.9997C32.5389 60.9997 32.0878 60.8628 31.7041 60.6065C31.3204 60.3501 31.0214 59.9857 30.8448 59.5594C30.6682 59.133 30.622 58.6639 30.712 58.2113C30.802 57.7587 31.0243 57.343 31.3506 57.0167C31.6769 56.6904 32.0926 56.4681 32.5452 56.3781C32.9978 56.2881 33.4669 56.3343 33.8933 56.5109C34.3196 56.6875 34.684 56.9865 34.9404 57.3702C35.1967 57.7539 35.3336 58.205 35.3336 58.6665C35.333 59.2851 35.0869 59.8782 34.6495 60.3156C34.2121 60.753 33.619 60.9991 33.0004 60.9997Z" fill="#3B71FE"/>
<path d="M36.3865 65.6664H29.6155C28.67 65.6548 27.7585 66.0185 27.0808 66.6779C26.403 67.3372 26.0144 68.2384 26 69.1839V72.2592C25.9998 72.4637 26.0533 72.6646 26.1551 72.8419C26.2569 73.0192 26.4035 73.1666 26.5803 73.2694C28.5292 74.4029 30.7435 75.0001 32.9981 75.0001C35.2527 75.0001 37.4671 74.4029 39.416 73.2694C39.5927 73.1669 39.7393 73.0197 39.8412 72.8426C39.943 72.6655 39.9965 72.4647 39.9962 72.2604V69.1851C39.9822 68.2404 39.5945 67.3398 38.9179 66.6804C38.2414 66.0209 37.3312 65.6563 36.3865 65.6664ZM37.6689 71.5641C36.2168 72.2779 34.6202 72.6491 33.0022 72.6491C31.3841 72.6491 29.7876 72.2779 28.3355 71.5641V69.1851C28.3492 68.8581 28.4918 68.5499 28.7321 68.3278C28.9724 68.1056 29.2909 67.9877 29.6179 67.9996H36.3865C36.7135 67.9877 37.032 68.1056 37.2722 68.3278C37.5125 68.5499 37.6551 68.8581 37.6689 69.1851V71.5641Z" fill="#3B71FE"/>
<path d="M17.8334 20.1665C15.2952 20.1665 12.814 20.9192 10.7036 22.3293C8.59312 23.7395 6.94822 25.7438 5.97689 28.0888C5.00556 30.4338 4.75142 33.0142 5.2466 35.5036C5.74178 37.9931 6.96404 40.2798 8.75883 42.0745C10.5536 43.8693 12.8403 45.0916 15.3298 45.5868C17.8192 46.082 20.3996 45.8278 22.7446 44.8565C25.0896 43.8851 27.0939 42.2402 28.504 40.1298C29.9142 38.0194 30.6669 35.5381 30.6669 32.9999C30.6629 29.5975 29.3095 26.3356 26.9036 23.9297C24.4978 21.5239 21.2358 20.1705 17.8334 20.1665ZM17.8334 43.5002C15.7562 43.5002 13.7257 42.8842 11.9985 41.7302C10.2714 40.5761 8.92525 38.9359 8.13034 37.0168C7.33542 35.0977 7.12744 32.986 7.53268 30.9487C7.93793 28.9114 8.9382 27.04 10.407 25.5712C11.8758 24.1024 13.7472 23.1021 15.7845 22.6969C17.8218 22.2916 19.9335 22.4996 21.8526 23.2945C23.7717 24.0894 25.412 25.4356 26.566 27.1627C27.72 28.8898 28.336 30.9204 28.336 32.9976C28.3337 35.7824 27.2264 38.4524 25.2573 40.4215C23.2882 42.3906 20.6182 43.4979 17.8334 43.5002Z" fill="#3B71FE"/>
<path d="M17.8334 24.8333C16.9105 24.8333 16.0083 25.1069 15.2409 25.6197C14.4735 26.1324 13.8754 26.8612 13.5222 27.7139C13.169 28.5666 13.0766 29.5048 13.2567 30.41C13.4367 31.3152 13.8811 32.1467 14.5337 32.7993C15.1864 33.4519 16.0178 33.8963 16.923 34.0764C17.8282 34.2564 18.7665 34.164 19.6191 33.8108C20.4718 33.4576 21.2006 32.8595 21.7133 32.0921C22.2261 31.3248 22.4998 30.4226 22.4998 29.4996C22.4985 28.2624 22.0065 27.0762 21.1317 26.2014C20.2568 25.3265 19.0706 24.8345 17.8334 24.8333ZM17.8334 31.8334C17.3719 31.8334 16.9208 31.6966 16.5371 31.4402C16.1534 31.1838 15.8544 30.8194 15.6778 30.3931C15.5012 29.9668 15.455 29.4976 15.545 29.045C15.635 28.5924 15.8573 28.1767 16.1836 27.8504C16.5099 27.5241 16.9256 27.3019 17.3782 27.2119C17.8308 27.1218 18.2999 27.168 18.7263 27.3446C19.1526 27.5212 19.517 27.8203 19.7734 28.204C20.0297 28.5877 20.1666 29.0388 20.1666 29.5002C20.166 30.1188 19.9199 30.7119 19.4825 31.1494C19.0451 31.5868 18.452 31.8328 17.8334 31.8334Z" fill="#3B71FE"/>
<path d="M21.2181 36.4998H14.45C13.5045 36.4882 12.593 36.8519 11.9152 37.5113C11.2375 38.1706 10.8488 39.0718 10.8345 40.0173V43.0926C10.8343 43.2971 10.8878 43.498 10.9896 43.6753C11.0914 43.8526 11.238 44 11.4147 44.1028C13.3637 45.2363 15.578 45.8334 17.8326 45.8334C20.0872 45.8334 22.3015 45.2363 24.2505 44.1028C24.4271 44.0002 24.5737 43.853 24.6756 43.6759C24.7774 43.4988 24.8309 43.2981 24.8307 43.0938V40.0184C24.8167 39.0733 24.4285 38.1722 23.7514 37.5127C23.0742 36.8532 22.1633 36.4889 21.2181 36.4998ZM22.5004 42.3975C21.0483 43.1113 19.4518 43.4824 17.8338 43.4824C16.2157 43.4824 14.6192 43.1113 13.1671 42.3975V40.0184C13.1808 39.6915 13.3234 39.3833 13.5637 39.1612C13.804 38.939 14.1224 38.821 14.4494 38.833H21.2175C21.5445 38.821 21.863 38.939 22.1032 39.1612C22.3435 39.3833 22.4861 39.6915 22.4999 40.0184V42.3975H22.5004Z" fill="#3B71FE"/>
<path d="M45.8334 4.99976C43.2952 4.99976 40.814 5.75242 38.7036 7.16258C36.5931 8.57273 34.9482 10.577 33.9769 12.922C33.0056 15.267 32.7514 17.8474 33.2466 20.3369C33.7418 22.8263 34.964 25.113 36.7588 26.9078C38.5536 28.7026 40.8403 29.9248 43.3298 30.42C45.8192 30.9152 48.3996 30.6611 50.7446 29.6897C53.0896 28.7184 55.0939 27.0735 56.504 24.9631C57.9142 22.8526 58.6669 20.3714 58.6669 17.8332C58.6629 14.4308 57.3095 11.1689 54.9036 8.76299C52.4978 6.35712 49.2359 5.00375 45.8334 4.99976V4.99976ZM45.8334 28.3334C43.7562 28.3334 41.7257 27.7175 39.9985 26.5634C38.2714 25.4094 36.9252 23.7691 36.1303 21.85C35.3354 19.9309 35.1274 17.8192 35.5327 15.7819C35.9379 13.7446 36.9382 11.8732 38.407 10.4044C39.8758 8.93563 41.7472 7.93535 43.7845 7.53011C45.8218 7.12487 47.9335 7.33285 49.8526 8.12777C51.7717 8.92268 53.412 10.2688 54.566 11.996C55.72 13.7231 56.336 15.7537 56.336 17.8309C56.3337 20.6156 55.2264 23.2856 53.2573 25.2548C51.2882 27.2239 48.6182 28.3311 45.8334 28.3334Z" fill="#3B71FE"/>
<path d="M45.8339 9.66614C44.911 9.66614 44.0088 9.9398 43.2414 10.4525C42.4741 10.9652 41.876 11.694 41.5228 12.5466C41.1695 13.3993 41.0771 14.3375 41.2571 15.2427C41.4371 16.1479 41.8815 16.9793 42.534 17.632C43.1866 18.2846 44.018 18.7291 44.9231 18.9092C45.8283 19.0893 46.7665 18.997 47.6192 18.6439C48.4719 18.2908 49.2007 17.6928 49.7136 16.9255C50.2264 16.1581 50.5001 15.256 50.5003 14.3331C50.4992 13.0958 50.0072 11.9094 49.1323 11.0345C48.2575 10.1595 47.0712 9.66737 45.8339 9.66614ZM45.8339 16.6663C45.3724 16.6663 44.9213 16.5295 44.5376 16.2731C44.1539 16.0167 43.8549 15.6523 43.6783 15.226C43.5017 14.7996 43.4555 14.3305 43.5455 13.8779C43.6355 13.4253 43.8578 13.0096 44.1841 12.6833C44.5104 12.357 44.9261 12.1348 45.3787 12.0447C45.8313 11.9547 46.3004 12.0009 46.7267 12.1775C47.1531 12.3541 47.5175 12.6532 47.7738 13.0369C48.0302 13.4205 48.1671 13.8716 48.1671 14.3331C48.1669 14.952 47.9211 15.5456 47.4836 15.9834C47.0461 16.4212 46.4528 16.6674 45.8339 16.668V16.6663Z" fill="#3B71FE"/>
<path d="M49.2175 21.3334H42.45C41.5045 21.3218 40.593 21.6855 39.9152 22.3449C39.2375 23.0042 38.8488 23.9054 38.8345 24.8509V27.9262C38.8343 28.1307 38.8878 28.3316 38.9896 28.5089C39.0914 28.6862 39.238 28.8336 39.4147 28.9364C41.3637 30.0699 43.578 30.667 45.8326 30.667C48.0872 30.667 50.3015 30.0699 52.2505 28.9364C52.4271 28.8338 52.5737 28.6866 52.6756 28.5095C52.7774 28.3324 52.8309 28.1317 52.8307 27.9274V24.852C52.8167 23.9068 52.4285 23.0057 51.7512 22.3461C51.0739 21.6866 50.1628 21.3224 49.2175 21.3334ZM50.4999 27.2311C49.0477 27.9449 47.4512 28.3161 45.8332 28.3161C44.2151 28.3161 42.6186 27.9449 41.1665 27.2311V24.852C41.1802 24.5251 41.3228 24.2169 41.5631 23.9948C41.8034 23.7726 42.1219 23.6546 42.4489 23.6666H49.2181C49.5451 23.6546 49.8635 23.7726 50.1038 23.9948C50.3441 24.2169 50.4867 24.5251 50.5004 24.852V27.2311H50.4999Z" fill="#3B71FE"/>
<path d="M35.0546 17.0736C34.8532 16.839 34.5668 16.6938 34.2584 16.67C33.95 16.6462 33.6448 16.7456 33.4096 16.9466L25.3244 23.8649C25.2071 23.9642 25.1106 24.0857 25.0404 24.2225C24.9702 24.3592 24.9277 24.5085 24.9154 24.6617C24.9031 24.8149 24.9211 24.969 24.9686 25.1152C25.016 25.2614 25.0919 25.3967 25.1919 25.5135C25.2918 25.6303 25.4139 25.7262 25.551 25.7956C25.6881 25.865 25.8376 25.9067 25.9909 25.9182C26.1441 25.9296 26.2982 25.9107 26.4441 25.8625C26.59 25.8142 26.725 25.7376 26.8412 25.637L34.9258 18.7187C35.0424 18.6191 35.1381 18.4976 35.2077 18.3611C35.2772 18.2245 35.3192 18.0756 35.3311 17.9228C35.3431 17.7701 35.3248 17.6164 35.2774 17.4707C35.2299 17.325 35.1543 17.1901 35.0546 17.0736Z" fill="#3B71FE"/>
<path d="M60.7673 35.8017L53.7672 26.4683C53.5817 26.2208 53.3054 26.0571 52.9992 26.0133C52.693 25.9694 52.3819 26.049 52.1344 26.2345C51.8868 26.42 51.7231 26.6963 51.6793 27.0025C51.6354 27.3087 51.715 27.6198 51.9005 27.8673L58.9012 37.2001C59.0868 37.4476 59.363 37.6113 59.6692 37.6552C59.9755 37.699 60.2866 37.6195 60.5341 37.4339C60.7816 37.2484 60.9453 36.9722 60.9892 36.666C61.033 36.3597 60.9534 36.0486 60.7679 35.8011L60.7673 35.8017Z" fill="#3B71FE"/>
<path d="M51.1916 52.0247C51.0058 51.7774 50.7293 51.614 50.423 51.5704C50.1167 51.5269 49.8056 51.6068 49.5582 51.7926L43.0414 56.6795C42.7975 56.8664 42.6372 57.142 42.5953 57.4465C42.5535 57.7509 42.6335 58.0596 42.818 58.3053C43.0025 58.5511 43.2765 58.7142 43.5805 58.759C43.8845 58.8039 44.1939 58.727 44.4416 58.545L50.9584 53.6581C51.0811 53.5663 51.1845 53.4512 51.2627 53.3193C51.3409 53.1875 51.3923 53.0415 51.4139 52.8898C51.4356 52.7381 51.4271 52.5835 51.389 52.4351C51.3508 52.2866 51.2838 52.1472 51.1916 52.0247Z" fill="#3B71FE"/>
<path d="M21.3337 60.9999H13.1672C12.8623 61.0067 12.5722 61.1326 12.359 61.3506C12.1458 61.5686 12.0264 61.8615 12.0264 62.1665C12.0264 62.4714 12.1458 62.7643 12.359 62.9823C12.5722 63.2004 12.8623 63.3263 13.1672 63.3331H21.3337C21.6386 63.3263 21.9287 63.2004 22.1419 62.9823C22.3552 62.7643 22.4746 62.4714 22.4746 62.1665C22.4746 61.8615 22.3552 61.5686 22.1419 61.3506C21.9287 61.1326 21.6386 61.0067 21.3337 60.9999Z" fill="#3B71FE"/>
<path d="M17.8334 4.99976C16.9105 4.99976 16.0083 5.27343 15.2409 5.78618C14.4735 6.29893 13.8754 7.02772 13.5222 7.88039C13.169 8.73306 13.0766 9.67132 13.2567 10.5765C13.4367 11.4817 13.8811 12.3132 14.5337 12.9658C15.1864 13.6184 16.0178 14.0628 16.923 14.2429C17.8282 14.4229 18.7665 14.3305 19.6191 13.9773C20.4718 13.6241 21.2006 13.026 21.7133 12.2586C22.2261 11.4913 22.4998 10.5891 22.4998 9.66614C22.4984 8.42896 22.0063 7.24285 21.1315 6.36804C20.2567 5.49322 19.0706 5.00114 17.8334 4.99976V4.99976ZM17.8334 11.9999C17.372 11.9996 16.9211 11.8625 16.5377 11.6059C16.1542 11.3493 15.8554 10.9849 15.6791 10.5585C15.5027 10.1322 15.4568 9.66315 15.5469 9.21069C15.6371 8.75822 15.8594 8.34265 16.1857 8.0165C16.512 7.69034 16.9277 7.46826 17.3802 7.3783C17.8327 7.28835 18.3018 7.33458 18.728 7.51113C19.1542 7.68769 19.5186 7.98665 19.7749 8.37023C20.0313 8.75381 20.1682 9.20478 20.1683 9.66614C20.1679 10.2852 19.9217 10.8787 19.4838 11.3163C19.046 11.7539 18.4524 11.9998 17.8334 11.9999Z" fill="#3B71FE"/>
<path d="M17.8332 12C17.6799 11.9999 17.5282 12.0301 17.3866 12.0887C17.2449 12.1473 17.1163 12.2332 17.0079 12.3416C16.8995 12.45 16.8136 12.5786 16.755 12.7202C16.6964 12.8619 16.6662 13.0136 16.6663 13.1669V21.3334C16.6628 21.4887 16.6905 21.6433 16.7475 21.7878C16.8046 21.9324 16.89 22.0641 16.9986 22.1752C17.1073 22.2864 17.2371 22.3746 17.3803 22.4349C17.5236 22.4952 17.6775 22.5263 17.8329 22.5263C17.9883 22.5263 18.1422 22.4952 18.2855 22.4349C18.4287 22.3746 18.5585 22.2864 18.6672 22.1752C18.7758 22.0641 18.8612 21.9324 18.9183 21.7878C18.9754 21.6433 19.003 21.4887 18.9995 21.3334V13.1669C18.9996 13.0137 18.9695 12.862 18.9109 12.7204C18.8523 12.5788 18.7664 12.4502 18.6581 12.3418C18.5498 12.2334 18.4212 12.1475 18.2797 12.0888C18.1381 12.0302 17.9864 12 17.8332 12Z" fill="#3B71FE"/>
</svg>
