<svg width="80" height="80" viewBox="0 0 80 80" fill="none" xmlns="http://www.w3.org/2000/svg">
<path d="M50.1231 57.3366H51.8806C52.3466 57.337 52.7933 57.5223 53.1229 57.8518C53.4524 58.1813 53.6376 58.6281 53.638 59.0941H55.3955C55.3946 58.1622 55.0239 57.2687 54.365 56.6098C53.706 55.9509 52.8125 55.5804 51.8806 55.5796V53.8221H50.1231V55.5796C49.1909 55.5796 48.297 55.9499 47.6378 56.6091C46.9787 57.2682 46.6084 58.1622 46.6084 59.0943C46.6084 60.0265 46.9787 60.9205 47.6378 61.5796C48.297 62.2387 49.1909 62.609 50.1231 62.609H51.8806C52.1138 62.6051 52.3456 62.6476 52.5622 62.7341C52.7789 62.8206 52.9762 62.9494 53.1425 63.113C53.3089 63.2766 53.441 63.4716 53.5312 63.6868C53.6214 63.902 53.6679 64.1329 53.6679 64.3662C53.6679 64.5995 53.6214 64.8305 53.5312 65.0457C53.441 65.2608 53.3089 65.4559 53.1425 65.6195C52.9762 65.783 52.7789 65.9118 52.5622 65.9984C52.3456 66.0849 52.1138 66.1274 51.8806 66.1235H50.1231C49.6572 66.1229 49.2105 65.9376 48.8811 65.6081C48.5518 65.2786 48.3665 64.8319 48.3661 64.366V63.4875H46.6087V64.366C46.6096 65.2978 46.9802 66.1912 47.639 66.85C48.2979 67.5089 49.1913 67.8795 50.1231 67.8804V69.6379H51.8806V67.8804C52.3421 67.8804 52.7992 67.7895 53.2256 67.6129C53.652 67.4363 54.0395 67.1774 54.3658 66.851C54.6922 66.5246 54.9511 66.1372 55.1277 65.7107C55.3044 65.2843 55.3953 64.8273 55.3953 64.3657C55.3953 63.9042 55.3044 63.4471 55.1277 63.0207C54.9511 62.5943 54.6922 62.2068 54.3658 61.8805C54.0395 61.5541 53.652 61.2952 53.2256 61.1186C52.7992 60.9419 52.3421 60.851 51.8806 60.851H50.1231C49.6622 60.8432 49.2229 60.6546 48.8997 60.3259C48.5766 59.9972 48.3955 59.5548 48.3955 59.0938C48.3955 58.6329 48.5766 58.1904 48.8997 57.8617C49.2229 57.533 49.6622 57.3444 50.1231 57.3366Z" fill="#3B71FE"/>
<path d="M61.2361 48.7323L57.6223 45.5545L62.912 38.4627C63.4767 37.7007 63.7824 36.7778 63.7844 35.8293C63.7863 34.6681 63.3274 33.5536 62.5084 32.7304C61.6895 31.9072 60.5774 31.4426 59.4163 31.4384C58.8776 31.4541 58.3501 31.5952 57.8754 31.8504C57.4008 32.1055 56.9922 32.4678 56.682 32.9084C56.206 33.4549 56.0159 33.6318 55.5911 33.6318C55.1663 33.6318 54.9762 33.4549 54.4992 32.9084C54.2012 32.4559 53.7955 32.0845 53.3185 31.8275C52.8416 31.5705 52.3082 31.436 51.7664 31.436C51.2246 31.436 50.6913 31.5705 50.2143 31.8275C49.7373 32.0845 49.3316 32.4559 49.0336 32.9084C48.5597 33.4539 48.3696 33.6308 47.9458 33.6308C47.522 33.6308 47.3329 33.4539 46.859 32.9084C46.5496 32.4674 46.1417 32.1046 45.6675 31.8489C45.1934 31.5932 44.6662 31.4516 44.1277 31.4353C42.9665 31.4395 41.8545 31.9042 41.0355 32.7274C40.2166 33.5506 39.7577 34.6651 39.7596 35.8262C39.7612 36.7757 40.0674 37.6996 40.633 38.4622L45.9247 45.5545L42.3109 48.7323C39.6738 51.0556 38.0105 54.2885 37.6534 57.7848H34.3006V56.6873C34.2997 54.433 33.6682 52.2239 32.4775 50.3097C31.2868 48.3954 29.5844 46.8524 27.5627 45.8551C29.0824 45.1331 30.3927 44.0352 31.3694 42.6652C32.3462 41.2953 32.9571 39.6988 33.1444 38.0268H33.2098C34.0197 38.0253 34.8134 37.7991 35.5024 37.3734C36.1915 36.9476 36.7488 36.3389 37.1124 35.6152C37.476 34.8914 37.6317 34.0809 37.562 33.274C37.4923 32.467 37.2 31.6952 36.7176 31.0445C37.4604 29.1384 37.7277 27.0801 37.4964 25.0476C37.2651 23.015 36.5422 21.0694 35.3901 19.3789C34.238 17.6885 32.6916 16.3041 30.8844 15.3455C29.0772 14.387 27.0637 13.883 25.018 13.8773H19.558C17.5124 13.8831 15.4989 14.3871 13.6918 15.3457C11.8847 16.3044 10.3383 17.6889 9.18649 19.3795C8.03464 21.07 7.31199 23.0157 7.08103 25.0483C6.85007 27.0809 7.11776 29.1391 7.86095 31.045C7.37897 31.6957 7.08697 32.4674 7.01742 33.2742C6.94787 34.0809 7.1035 34.8912 7.467 35.6148C7.83051 36.3384 8.38763 36.9469 9.07639 37.3728C9.76514 37.7986 10.5585 38.025 11.3683 38.0268H11.4317C11.6189 39.6988 12.2299 41.2953 13.2066 42.6652C14.1834 44.0352 15.4936 45.1331 17.0133 45.8551C14.9916 46.8524 13.2892 48.3954 12.0985 50.3097C10.9078 52.2239 10.2763 54.433 10.2754 56.6873V57.6555L8.57925 58.5072C8.10394 58.7477 7.70463 59.1153 7.42567 59.5692C7.14671 60.023 6.99902 60.5453 6.99902 61.078C6.99902 61.6107 7.14671 62.133 7.42567 62.5868C7.70463 63.0406 8.10394 63.4083 8.57925 63.6488L17.9197 68.3423V64.3712H38.5709C39.5908 66.9544 41.3623 69.1722 43.6562 70.7377C45.9502 72.3032 48.6612 73.1444 51.4384 73.1525H52.1081C54.9352 73.135 57.6904 72.2588 60.0083 70.64C62.3262 69.0212 64.0975 66.7363 65.0875 64.0881C66.0774 61.4398 66.2393 58.5533 65.5516 55.811C64.8639 53.0686 63.3591 50.6 61.2366 48.7323H61.2361ZM33.2098 35.8313V31.4404C33.792 31.4404 34.3505 31.6717 34.7622 32.0834C35.1739 32.4952 35.4052 33.0536 35.4052 33.6359C35.4052 34.2181 35.1739 34.7766 34.7622 35.1883C34.3505 35.6 33.792 35.8313 33.2098 35.8313ZM11.3673 35.8313C10.785 35.8313 10.2266 35.6 9.81487 35.1883C9.40314 34.7766 9.17183 34.2181 9.17183 33.6359C9.17183 33.0536 9.40314 32.4952 9.81487 32.0834C10.2266 31.6717 10.785 31.4404 11.3673 31.4404V35.8313ZM11.3673 27.3364V29.2455C10.7796 29.2454 10.198 29.3649 9.65797 29.5968C9.17102 28.0406 9.05629 26.3918 9.32303 24.7832C9.58977 23.1746 10.2305 21.6511 11.1937 20.3354C12.1568 19.0196 13.4155 17.9485 14.8683 17.2081C16.3211 16.4677 17.9275 16.0788 19.558 16.0728H25.018C26.6485 16.0789 28.2547 16.4679 29.7074 17.2083C31.1601 17.9486 32.4187 19.0198 33.3817 20.3354C34.3448 21.6511 34.9855 23.1745 35.2523 24.783C35.5191 26.3915 35.4044 28.0402 34.9176 29.5963C34.3782 29.3638 33.797 29.2443 33.2098 29.245V27.0495H32.1179C31.1109 27.0491 30.1332 26.7108 29.3413 26.0889C28.5494 25.467 27.9889 24.5974 27.7498 23.6192L27.434 22.3676L11.3673 27.3364ZM13.5516 36.9293V28.9586L25.9507 25.1243C26.385 26.172 27.0789 27.0918 27.967 27.7972C28.8551 28.5026 29.9082 28.9703 31.027 29.1563V36.9288C31.0298 38.9607 30.2266 40.9108 28.7935 42.3512C27.3605 43.7917 25.4146 44.605 23.3827 44.6126H21.1959C19.164 44.605 17.2181 43.7917 15.785 42.3512C14.352 40.9108 13.5488 38.9607 13.5516 36.9288V36.9293ZM26.2184 47.6379L25.2659 50.066L22.8555 46.8364C24.0153 46.9008 25.1542 47.1722 26.2184 47.6379ZM21.72 46.8364L19.3101 50.066L18.3576 47.6379C19.4216 47.1723 20.5604 46.9008 21.72 46.8364ZM16.4481 48.7587L18.7135 54.5269L21.1974 51.1985V55.5894H23.3817V51.199L25.8656 54.5274L28.1295 48.7592C29.3671 49.6777 30.3727 50.8732 31.0656 52.25C31.7585 53.6267 32.1196 55.1465 32.1199 56.6878V57.7853H17.9197V53.8136L12.4663 56.5545C12.4863 55.0363 12.8561 53.5431 13.547 52.191C14.238 50.8389 15.2314 49.6644 16.4501 48.7587H16.4481ZM15.7339 62.1757V64.7904L9.55658 61.685C9.44433 61.6282 9.35003 61.5414 9.28414 61.4343C9.21826 61.3271 9.18338 61.2038 9.18338 61.078C9.18338 60.9522 9.21826 60.8289 9.28414 60.7217C9.35003 60.6145 9.44433 60.5277 9.55658 60.471L15.7359 57.3656V59.9803H37.6169C37.6529 60.7184 37.7474 61.4525 37.8997 62.1757H15.7339ZM42.3819 37.1483C42.0988 36.7671 41.9456 36.3051 41.9449 35.8303C41.944 35.2497 42.1735 34.6924 42.583 34.2808C42.9925 33.8692 43.5486 33.6369 44.1292 33.6349C44.553 33.6349 44.7421 33.8118 45.2161 34.3572C45.5137 34.8098 45.9192 35.1814 46.396 35.4385C46.8729 35.6956 47.4061 35.8302 47.9478 35.8302C48.4896 35.8302 49.0228 35.6956 49.4996 35.4385C49.9764 35.1814 50.3819 34.8098 50.6796 34.3572C51.1546 33.8118 51.3437 33.6349 51.7674 33.6349C52.1912 33.6349 52.3823 33.8118 52.8583 34.3582C53.1566 34.8107 53.5625 35.1821 54.0397 35.4391C54.5169 35.696 55.0504 35.8305 55.5924 35.8305C56.1343 35.8305 56.6678 35.696 57.145 35.4391C57.6222 35.1821 58.0281 34.8107 58.3264 34.3582C58.8034 33.8118 58.9925 33.6349 59.4183 33.6349C59.9989 33.6369 60.555 33.8692 60.9646 34.2808C61.3741 34.6924 61.6035 35.2497 61.6026 35.8303C61.6018 36.3049 61.449 36.7668 61.1667 37.1483L55.5957 44.6126H47.9514L42.3819 37.1483ZM52.1091 70.9595H51.4395C49.0574 70.9447 46.7362 70.2064 44.7833 68.8423C42.8304 67.4783 41.3382 65.5531 40.5043 63.3217C39.6705 61.0904 39.5344 58.6583 40.1141 56.3479C40.6939 54.0374 41.962 51.9577 43.7506 50.3843L47.8186 46.8081H55.7315L59.7995 50.3843C61.5868 51.9581 62.8538 54.0376 63.4327 56.3476C64.0116 58.6576 63.8751 61.0889 63.0412 63.3195C62.2073 65.5501 60.7154 67.4748 58.7632 68.8385C56.8109 70.2022 54.4904 70.9407 52.1091 70.956V70.9595Z" fill="#3B71FE"/>
<path d="M68.6054 7.72638C68.0539 7.72831 67.5169 7.90352 67.0704 8.22726C66.6238 8.551 66.2903 9.00689 66.117 9.5305L64.4487 8.19579C63.3571 7.32502 62.0027 6.84988 60.6063 6.8479H52.7897C52.3237 6.8483 51.8769 7.03359 51.5474 7.3631C51.2179 7.6926 51.0326 8.13939 51.0322 8.60538C51.0359 9.22424 51.2045 9.83093 51.5209 10.3629H45.7608C45.3295 10.3614 44.9045 10.4662 44.5232 10.6679C44.142 10.8696 43.8163 11.1621 43.5749 11.5195C43.3335 11.8769 43.1837 12.2883 43.1389 12.7172C43.0941 13.1462 43.1556 13.5796 43.318 13.9792C42.7583 14.1268 42.2633 14.4555 41.91 14.914C41.5568 15.3725 41.3652 15.935 41.3652 16.5138C41.3652 17.0925 41.5568 17.6551 41.91 18.1136C42.2633 18.572 42.7583 18.9007 43.318 19.0483C43.1777 19.3928 43.1126 19.7632 43.1269 20.1348C43.1412 20.5064 43.2346 20.8707 43.401 21.2033C43.5674 21.5359 43.8028 21.8292 44.0915 22.0635C44.3803 22.2979 44.7157 22.4679 45.0754 22.5623C44.9131 22.9619 44.8516 23.3953 44.8964 23.8242C44.9412 24.2532 45.0909 24.6646 45.3324 25.022C45.5738 25.3794 45.8995 25.6718 46.2807 25.8736C46.6619 26.0753 47.087 26.18 47.5183 26.1786H60.6068C62.0032 26.1769 63.3578 25.7017 64.4492 24.8307L66.118 23.496C66.2914 24.0194 66.6248 24.475 67.0711 24.7987C67.5174 25.1223 68.0541 25.2975 68.6054 25.2996H72.9989V7.72638H68.6054ZM65.9695 21.3624L63.3503 23.458C62.5708 24.08 61.6036 24.4196 60.6063 24.4211H47.5178C47.2847 24.4211 47.0612 24.3286 46.8964 24.1638C46.7316 23.999 46.639 23.7755 46.639 23.5424C46.639 23.3093 46.7316 23.0858 46.8964 22.921C47.0612 22.7562 47.2847 22.6637 47.5178 22.6637H55.4256V20.9062H45.7608C45.5277 20.9062 45.3042 20.8136 45.1394 20.6488C44.9746 20.484 44.8821 20.2605 44.8821 20.0274C44.8821 19.7944 44.9746 19.5709 45.1394 19.4061C45.3042 19.2413 45.5277 19.1487 45.7608 19.1487H55.4256V17.3917H44.0033C43.7703 17.3917 43.5468 17.2992 43.382 17.1344C43.2172 16.9696 43.1246 16.7461 43.1246 16.513C43.1246 16.2799 43.2172 16.0564 43.382 15.8916C43.5468 15.7268 43.7703 15.6343 44.0033 15.6343H55.4256V13.8773H45.7608C45.5277 13.8773 45.3042 13.7847 45.1394 13.6199C44.9746 13.4551 44.8821 13.2316 44.8821 12.9986C44.8821 12.7655 44.9746 12.542 45.1394 12.3772C45.3042 12.2124 45.5277 12.1198 45.7608 12.1198H57.6981L58.532 12.9547C59.102 13.5275 59.7798 13.9815 60.5264 14.2907C61.2729 14.5998 62.0733 14.7579 62.8814 14.7558H64.2125V12.9983H62.8814C62.3044 13.0001 61.7327 12.8875 61.1994 12.6672C60.6662 12.4468 60.1819 12.1229 59.7745 11.7143L58.4256 10.3623H54.5472C54.0812 10.3619 53.6344 10.1767 53.3049 9.84715C52.9754 9.51764 52.7901 9.07086 52.7897 8.60487H60.6063C61.6036 8.60609 62.571 8.94564 63.3503 9.56801L65.9695 11.6636V21.3624ZM71.2414 23.5421H68.6054C68.3725 23.5419 68.1493 23.4492 67.9846 23.2845C67.8199 23.1199 67.7272 22.8966 67.727 22.6637V10.3623C67.7272 10.1294 67.8199 9.90615 67.9846 9.74146C68.1493 9.57677 68.3725 9.48413 68.6054 9.48386H71.2414V23.5421Z" fill="#3B71FE"/>
<path d="M25.9016 33.4254C26.1346 33.4256 26.358 33.5182 26.5228 33.6829C26.6876 33.8476 26.7803 34.0709 26.7806 34.3039H28.5375C28.5375 33.6048 28.2598 32.9344 27.7655 32.44C27.2712 31.9457 26.6007 31.668 25.9016 31.668C25.2025 31.668 24.532 31.9457 24.0377 32.44C23.5433 32.9344 23.2656 33.6048 23.2656 34.3039H25.0231C25.0234 34.071 25.116 33.8477 25.2807 33.683C25.4454 33.5184 25.6687 33.4257 25.9016 33.4254Z" fill="#3B71FE"/>
<path d="M15.7854 33.4254C16.0184 33.4256 16.2418 33.5182 16.4066 33.6829C16.5714 33.8476 16.6641 34.0709 16.6644 34.3039H18.4213C18.4213 33.9578 18.3532 33.615 18.2207 33.2952C18.0882 32.9754 17.8941 32.6848 17.6493 32.44C17.4045 32.1953 17.1139 32.0011 16.7941 31.8686C16.4743 31.7361 16.1315 31.668 15.7854 31.668C15.4392 31.668 15.0964 31.7361 14.7766 31.8686C14.4568 32.0011 14.1662 32.1953 13.9215 32.44C13.6767 32.6848 13.4825 32.9754 13.3501 33.2952C13.2176 33.615 13.1494 33.9578 13.1494 34.3039H14.9069C14.9072 34.071 14.9998 33.8477 15.1645 33.683C15.3292 33.5184 15.5525 33.4257 15.7854 33.4254Z" fill="#3B71FE"/>
<path d="M23.6929 38.2426V37.3641H14.9065V38.2426C14.9003 38.8235 15.0093 39.3999 15.2273 39.9384C15.4452 40.4768 15.7679 40.9667 16.1764 41.3797C16.585 41.7927 17.0714 42.1205 17.6075 42.3443C18.1436 42.568 18.7188 42.6832 19.2997 42.6832C19.8806 42.6832 20.4558 42.568 20.9919 42.3443C21.528 42.1205 22.0144 41.7927 22.423 41.3797C22.8315 40.9667 23.1541 40.4768 23.3721 39.9384C23.5901 39.3999 23.6991 38.8235 23.6929 38.2426ZM16.814 39.1211H21.7853C21.6038 39.6353 21.2673 40.0806 20.8221 40.3956C20.3769 40.7106 19.845 40.8797 19.2997 40.8797C18.7544 40.8797 18.2224 40.7106 17.7773 40.3956C17.3321 40.0806 16.9955 39.6353 16.814 39.1211Z" fill="#3B71FE"/>
</svg>
